<svg width="32" height="32" viewBox="0 0 32 32" fill="none" xmlns="http://www.w3.org/2000/svg">
<g id="Tama&#195;&#177;o=Solo_icon, Tema=Oscuro">
<g id="icon">
<g id="Dise&#195;&#177;o_interno">
<path id="Vector 8" d="M16.2811 16.0384V1.92259C16.5403 0.907012 17.0621 0.826736 18.4038 1.2168C19.9351 4.16107 21.4202 5.65495 25.3782 7.99238C28.436 10.6285 28.327 12.0694 27.5009 14.6268C23.8466 18.6222 23.2078 18.8967 23.5588 17.3088C26.3162 10.64 24.5278 9.04043 17.6457 8.55702V26.0606C16.6087 26.1706 15.9512 26.2892 14.6133 26.6252C13.3355 27.9231 13.8215 28.5698 13.552 29.7307C10.159 31.074 7.072 31.0765 4 29.7307V18.8616C6.54602 16.5258 9.58388 16.0989 16.2811 16.0384Z" fill="black" stroke="black" stroke-width="0.695652"/>
<path id="Vector 10" d="M5.56531 20.5301L7.89721 19.208C7.53178 19.9251 7.63808 20.1562 7.89721 20.5301L10.5035 19.208C10.284 19.9377 10.1931 20.3155 10.5035 20.5301C13.6344 19.1141 14.575 18.9035 15.3044 19.208M5.70248 23.909L7.89721 22.7338C7.68313 23.3864 7.67184 23.7126 7.89721 24.2028L10.5035 22.7338C10.4709 23.3499 10.5962 23.5787 10.915 23.909C12.8945 22.7308 13.7736 22.6958 15.3044 22.7338M5.56531 27.4348L7.89721 25.9657C7.63888 26.7825 7.64096 27.1044 7.89721 27.4348L10.5035 26.4064C10.5727 27.0133 10.67 27.2223 10.915 27.4348C12.4847 26.0771 13.0368 25.6433 13.6584 25.2312" stroke="white" stroke-width="0.695652"/>
<g id="Vector 9">
<path d="M12.8808 30.2174C13.1416 29.6956 14.7938 26.6398 14.6162 26.6398C14.4484 26.6398 17.6392 26.4359 17.8351 26.3965C17.8358 26.3947 17.8366 26.393 17.8373 26.3913C17.8478 26.3924 17.8467 26.3941 17.8351 26.3965C17.0142 28.3479 12.6201 30.7387 12.8808 30.2174Z" fill="#DDDDDD"/>
<path d="M14.6162 26.6398C14.7938 26.6398 13.1416 29.6956 12.8808 30.2174C12.6199 30.7391 17.022 28.3437 17.8373 26.3913C18.0265 26.4111 14.4385 26.6398 14.6162 26.6398Z" stroke="#CCCCCC" stroke-width="0.173913"/>
</g>
</g>
</g>
</g>
</svg>
