<svg width="325" height="128" viewBox="0 0 325 128" fill="none" xmlns="http://www.w3.org/2000/svg">
<g id="Tama&#195;&#177;o=XGrande, Tema=Claro">
<g id="icon">
<g id="Dise&#195;&#177;o_interno">
<path id="Vector 8" d="M65.1245 64.1536V7.69036C66.161 3.62805 68.2485 3.30694 73.6151 4.8672C79.7403 16.6443 85.6806 22.6198 101.513 31.9695C113.744 42.5138 113.308 48.2777 110.004 58.5072C95.3863 74.4888 92.8311 75.5867 94.2353 69.2353C105.265 42.56 98.1113 36.1617 70.5828 34.2281V104.242C66.4347 104.682 63.8049 105.157 58.4533 106.501C53.3421 111.692 55.2862 114.279 54.2079 118.923C40.6359 124.296 28.288 124.306 16 118.923V75.4462C26.1841 66.1034 38.3355 64.3956 65.1245 64.1536Z" fill="white" stroke="white" stroke-width="2.78261"/>
<path id="Vector 10" d="M22.2611 82.1205L31.5887 76.8318C30.127 79.7002 30.5522 80.6246 31.5887 82.1205L42.0137 76.8318C41.1358 79.7507 40.7723 81.262 42.0137 82.1205C54.5374 76.4562 58.3 75.614 61.2176 76.8318M22.8098 95.636L31.5887 90.9349C30.7324 93.5457 30.6873 94.8503 31.5887 96.8112L42.0137 90.9349C41.8835 93.3995 42.3849 94.3145 43.6598 95.636C51.5779 90.9233 55.0942 90.783 61.2176 90.9349M22.2611 109.739L31.5887 103.863C30.5554 107.13 30.5637 108.417 31.5887 109.739L42.0137 105.626C42.2907 108.053 42.68 108.889 43.6598 109.739C49.9387 104.308 52.1471 102.573 54.6334 100.925" stroke="black" stroke-width="2.78261"/>
<path id="Vector 9" d="M51.5231 120.87C52.5665 118.783 59.1752 106.559 58.4647 106.559C57.7937 106.559 70.557 105.743 71.3405 105.586C71.3434 105.579 71.3463 105.572 71.3492 105.565C71.3912 105.57 71.3866 105.577 71.3405 105.586C68.0569 113.392 50.4805 122.955 51.5231 120.87Z" fill="#DDDDDD" stroke="#CCCCCC" stroke-width="0.695652"/>
</g>
</g>
<path id="NoteBeat" d="M170.776 49.9091V79H166.088L152.381 59.1847H152.139V79H146.869V49.9091H151.585L165.278 69.7386H165.534V49.9091H170.776ZM185.808 79.4261C183.677 79.4261 181.83 78.9574 180.268 78.0199C178.705 77.0824 177.493 75.7708 176.631 74.0852C175.779 72.3996 175.353 70.4299 175.353 68.1761C175.353 65.9223 175.779 63.9479 176.631 62.2528C177.493 60.5578 178.705 59.2415 180.268 58.304C181.83 57.3665 183.677 56.8977 185.808 56.8977C187.938 56.8977 189.785 57.3665 191.347 58.304C192.91 59.2415 194.117 60.5578 194.969 62.2528C195.831 63.9479 196.262 65.9223 196.262 68.1761C196.262 70.4299 195.831 72.3996 194.969 74.0852C194.117 75.7708 192.91 77.0824 191.347 78.0199C189.785 78.9574 187.938 79.4261 185.808 79.4261ZM185.836 75.3068C186.991 75.3068 187.957 74.9896 188.734 74.3551C189.51 73.7112 190.088 72.8494 190.467 71.7699C190.855 70.6903 191.049 69.4877 191.049 68.1619C191.049 66.8267 190.855 65.6193 190.467 64.5398C190.088 63.4508 189.51 62.5843 188.734 61.9403C187.957 61.2964 186.991 60.9744 185.836 60.9744C184.652 60.9744 183.667 61.2964 182.881 61.9403C182.105 62.5843 181.522 63.4508 181.134 64.5398C180.755 65.6193 180.566 66.8267 180.566 68.1619C180.566 69.4877 180.755 70.6903 181.134 71.7699C181.522 72.8494 182.105 73.7112 182.881 74.3551C183.667 74.9896 184.652 75.3068 185.836 75.3068ZM211.521 57.1818V61.1591H198.979V57.1818H211.521ZM202.075 51.9545H207.217V72.4375C207.217 73.1288 207.321 73.6591 207.53 74.0284C207.748 74.3883 208.032 74.6345 208.382 74.767C208.732 74.8996 209.121 74.9659 209.547 74.9659C209.869 74.9659 210.162 74.9422 210.428 74.8949C210.702 74.8475 210.911 74.8049 211.053 74.767L211.919 78.7869C211.644 78.8816 211.251 78.9858 210.74 79.0994C210.238 79.2131 209.623 79.2794 208.893 79.2983C207.606 79.3362 206.446 79.142 205.413 78.7159C204.381 78.2803 203.562 77.608 202.956 76.6989C202.359 75.7898 202.066 74.6534 202.075 73.2898V51.9545ZM225.246 79.4261C223.059 79.4261 221.17 78.9716 219.579 78.0625C217.997 77.1439 216.781 75.8466 215.928 74.1705C215.076 72.4848 214.65 70.5009 214.65 68.2188C214.65 65.9744 215.076 64.0047 215.928 62.3097C216.79 60.6051 217.993 59.2794 219.536 58.3324C221.08 57.3759 222.893 56.8977 224.977 56.8977C226.321 56.8977 227.59 57.1155 228.783 57.5511C229.986 57.9773 231.047 58.6402 231.965 59.5398C232.893 60.4394 233.622 61.5852 234.153 62.9773C234.683 64.3598 234.948 66.0076 234.948 67.9205V69.4972H217.065V66.0312H230.019C230.01 65.0464 229.797 64.1705 229.38 63.4034C228.963 62.6269 228.381 62.0161 227.633 61.571C226.894 61.1259 226.032 60.9034 225.048 60.9034C223.996 60.9034 223.073 61.1591 222.278 61.6705C221.482 62.1723 220.862 62.8352 220.417 63.6591C219.981 64.4735 219.759 65.3684 219.749 66.3438V69.3693C219.749 70.6383 219.981 71.7273 220.445 72.6364C220.909 73.536 221.558 74.2273 222.391 74.7102C223.225 75.1837 224.2 75.4205 225.317 75.4205C226.066 75.4205 226.743 75.3163 227.349 75.108C227.955 74.8902 228.48 74.5729 228.925 74.1562C229.371 73.7396 229.707 73.2235 229.934 72.608L234.735 73.1477C234.432 74.4167 233.854 75.5246 233.002 76.4716C232.159 77.4091 231.08 78.1383 229.763 78.6591C228.447 79.1705 226.942 79.4261 225.246 79.4261ZM239.526 79V49.9091H250.662C252.764 49.9091 254.511 50.2405 255.903 50.9034C257.305 51.5568 258.351 52.4517 259.043 53.5881C259.743 54.7244 260.094 56.0123 260.094 57.4517C260.094 58.6354 259.866 59.6487 259.412 60.4915C258.957 61.3248 258.347 62.0019 257.58 62.5227C256.812 63.0436 255.955 63.4176 255.009 63.6449V63.929C256.041 63.9858 257.03 64.303 257.977 64.8807C258.934 65.4489 259.715 66.2538 260.321 67.2955C260.927 68.3371 261.23 69.5966 261.23 71.0739C261.23 72.5795 260.866 73.9337 260.136 75.1364C259.407 76.3295 258.309 77.2718 256.841 77.9631C255.373 78.6544 253.527 79 251.301 79H239.526ZM244.795 74.5966H250.463C252.376 74.5966 253.754 74.232 254.597 73.5028C255.449 72.7642 255.875 71.8172 255.875 70.6619C255.875 69.8002 255.662 69.0237 255.236 68.3324C254.81 67.6316 254.204 67.0824 253.418 66.6847C252.632 66.2775 251.694 66.0739 250.605 66.0739H244.795V74.5966ZM244.795 62.2812H250.009C250.918 62.2812 251.737 62.1155 252.466 61.7841C253.195 61.4432 253.768 60.965 254.185 60.3494C254.611 59.7244 254.824 58.9858 254.824 58.1335C254.824 57.0066 254.426 56.0786 253.631 55.3494C252.845 54.6203 251.675 54.2557 250.122 54.2557H244.795V62.2812ZM275.246 79.4261C273.059 79.4261 271.17 78.9716 269.579 78.0625C267.997 77.1439 266.781 75.8466 265.928 74.1705C265.076 72.4848 264.65 70.5009 264.65 68.2188C264.65 65.9744 265.076 64.0047 265.928 62.3097C266.79 60.6051 267.993 59.2794 269.536 58.3324C271.08 57.3759 272.893 56.8977 274.977 56.8977C276.321 56.8977 277.59 57.1155 278.783 57.5511C279.986 57.9773 281.047 58.6402 281.965 59.5398C282.893 60.4394 283.622 61.5852 284.153 62.9773C284.683 64.3598 284.948 66.0076 284.948 67.9205V69.4972H267.065V66.0312H280.019C280.01 65.0464 279.797 64.1705 279.38 63.4034C278.963 62.6269 278.381 62.0161 277.633 61.571C276.894 61.1259 276.032 60.9034 275.048 60.9034C273.996 60.9034 273.073 61.1591 272.278 61.6705C271.482 62.1723 270.862 62.8352 270.417 63.6591C269.981 64.4735 269.759 65.3684 269.749 66.3438V69.3693C269.749 70.6383 269.981 71.7273 270.445 72.6364C270.909 73.536 271.558 74.2273 272.391 74.7102C273.225 75.1837 274.2 75.4205 275.317 75.4205C276.066 75.4205 276.743 75.3163 277.349 75.108C277.955 74.8902 278.48 74.5729 278.925 74.1562C279.371 73.7396 279.707 73.2235 279.934 72.608L284.735 73.1477C284.432 74.4167 283.854 75.5246 283.002 76.4716C282.159 77.4091 281.08 78.1383 279.763 78.6591C278.447 79.1705 276.942 79.4261 275.246 79.4261ZM295.577 79.4403C294.194 79.4403 292.949 79.1941 291.841 78.7017C290.742 78.1998 289.871 77.4612 289.227 76.4858C288.593 75.5104 288.276 74.3078 288.276 72.8778C288.276 71.6468 288.503 70.6288 288.957 69.8239C289.412 69.0189 290.032 68.375 290.818 67.892C291.604 67.4091 292.49 67.0445 293.474 66.7983C294.469 66.5426 295.496 66.358 296.557 66.2443C297.835 66.1117 298.872 65.9934 299.668 65.8892C300.463 65.7756 301.041 65.6051 301.401 65.3778C301.77 65.1411 301.955 64.7765 301.955 64.2841V64.1989C301.955 63.1288 301.637 62.3002 301.003 61.7131C300.368 61.1259 299.455 60.8324 298.261 60.8324C297.002 60.8324 296.003 61.107 295.264 61.6562C294.535 62.2055 294.043 62.8542 293.787 63.6023L288.986 62.9205C289.365 61.5947 289.99 60.4867 290.861 59.5966C291.732 58.697 292.797 58.0246 294.057 57.5795C295.316 57.125 296.708 56.8977 298.233 56.8977C299.284 56.8977 300.33 57.0208 301.372 57.267C302.414 57.5133 303.366 57.9205 304.227 58.4886C305.089 59.0473 305.78 59.8097 306.301 60.7756C306.831 61.7415 307.097 62.9489 307.097 64.3977V79H302.153V76.0028H301.983C301.67 76.6089 301.23 77.1771 300.662 77.7074C300.103 78.2282 299.398 78.6496 298.545 78.9716C297.703 79.2841 296.713 79.4403 295.577 79.4403ZM296.912 75.6619C297.944 75.6619 298.839 75.4583 299.597 75.0511C300.354 74.6345 300.937 74.0852 301.344 73.4034C301.76 72.7216 301.969 71.9782 301.969 71.1733V68.6023C301.808 68.7348 301.533 68.858 301.145 68.9716C300.766 69.0852 300.34 69.1847 299.866 69.2699C299.393 69.3551 298.924 69.4309 298.46 69.4972C297.996 69.5634 297.594 69.6203 297.253 69.6676C296.486 69.7718 295.799 69.9422 295.193 70.179C294.587 70.4157 294.109 70.7472 293.759 71.1733C293.408 71.59 293.233 72.1297 293.233 72.7926C293.233 73.7396 293.579 74.4545 294.27 74.9375C294.961 75.4205 295.842 75.6619 296.912 75.6619ZM323.162 57.1818V61.1591H310.619V57.1818H323.162ZM313.716 51.9545H318.858V72.4375C318.858 73.1288 318.962 73.6591 319.17 74.0284C319.388 74.3883 319.672 74.6345 320.023 74.767C320.373 74.8996 320.761 74.9659 321.188 74.9659C321.509 74.9659 321.803 74.9422 322.068 74.8949C322.343 74.8475 322.551 74.8049 322.693 74.767L323.56 78.7869C323.285 78.8816 322.892 78.9858 322.381 79.0994C321.879 79.2131 321.263 79.2794 320.534 79.2983C319.246 79.3362 318.086 79.142 317.054 78.7159C316.022 78.2803 315.203 77.608 314.597 76.6989C314 75.7898 313.706 74.6534 313.716 73.2898V51.9545Z" fill="white"/>
</g>
</svg>
