<svg width="24" height="24" viewBox="0 0 24 24" fill="none" xmlns="http://www.w3.org/2000/svg">
<g id="Tama&#195;&#177;o=Boton, Tema=Oscuro">
<g id="icon">
<g id="Dise&#195;&#177;o_interno">
<path id="Vector 8" d="M12.2108 12.0288V1.44194C12.4052 0.680259 12.7966 0.620052 13.8028 0.912599C14.9513 3.1208 16.0651 4.24122 19.0337 5.99429C21.327 7.97134 21.2452 9.05208 20.6257 10.9701C17.8849 13.9666 17.4058 14.1725 17.6691 12.9816C19.7371 7.98 18.3959 6.78032 13.2343 6.41776V19.5455C12.4565 19.628 11.9634 19.7169 10.96 19.9689C10.0016 20.9423 10.3662 21.4274 10.164 22.298C7.61922 23.3055 5.304 23.3074 3 22.298V14.1462C4.90951 12.3944 7.18791 12.0742 12.2108 12.0288Z" fill="black" stroke="black" stroke-width="0.521739"/>
<path id="Vector 10" d="M4.17395 15.3976L5.92288 14.4059C5.64881 14.9438 5.72853 15.1171 5.92288 15.3976L7.87756 14.4059C7.71296 14.9532 7.64481 15.2366 7.87756 15.3976C10.2258 14.3355 10.9312 14.1776 11.4783 14.4059M4.27683 17.9317L5.92288 17.0503C5.76232 17.5398 5.75385 17.7844 5.92288 18.1521L7.87756 17.0503C7.85315 17.5124 7.94715 17.6839 8.1862 17.9317C9.67085 17.0481 10.3302 17.0218 11.4783 17.0503M4.17395 20.5761L5.92288 19.4742C5.72913 20.0868 5.73069 20.3282 5.92288 20.5761L7.87756 19.8048C7.9295 20.2599 8.0025 20.4167 8.1862 20.5761C9.3635 19.5578 9.77757 19.2324 10.2438 18.9233" stroke="white" stroke-width="0.521739"/>
<g id="Vector 9">
<path d="M9.66057 22.663C9.85622 22.2717 11.0954 19.9798 10.9621 19.9798C10.8363 19.9798 13.2294 19.8269 13.3763 19.7973C13.3769 19.796 13.3774 19.7947 13.378 19.7935C13.3859 19.7943 13.385 19.7956 13.3763 19.7973C12.7607 21.2609 9.46509 23.054 9.66057 22.663Z" fill="#DDDDDD"/>
<path d="M10.9621 19.9798C11.0954 19.9798 9.85622 22.2717 9.66057 22.663C9.46492 23.0543 12.7665 21.2577 13.378 19.7935C13.5199 19.8083 10.8289 19.9798 10.9621 19.9798Z" stroke="#CCCCCC" stroke-width="0.130435"/>
</g>
</g>
</g>
</g>
</svg>
