<svg width="257" height="96" viewBox="0 0 257 96" fill="none" xmlns="http://www.w3.org/2000/svg">
<g id="Tama&#195;&#177;o=Grande, Tema=Oscuro">
<g id="icon">
<g id="Dise&#195;&#177;o_interno">
<path id="Vector 8" d="M48.8434 48.1152V5.76777C49.6208 2.72104 51.1864 2.48021 55.2113 3.6504C59.8053 12.4832 64.2605 16.9649 76.1347 23.9772C85.308 31.8854 84.9809 36.2083 82.5027 43.8804C71.5397 55.8666 69.6233 56.69 70.6765 51.9264C78.9485 31.92 73.5835 27.1213 52.9371 25.6711V78.1818C49.826 78.5118 47.8537 78.8677 43.8399 79.8757C40.0066 83.7693 41.4646 85.7095 40.6559 89.1922C30.4769 93.222 21.216 93.2296 12 89.1922V56.5847C19.6381 49.5775 28.7516 48.2967 48.8434 48.1152Z" fill="black" stroke="black" stroke-width="2.08696"/>
<path id="Vector 10" d="M16.6958 61.5904L23.6915 57.6238C22.5952 59.7752 22.9141 60.4685 23.6915 61.5904L31.5103 57.6238C30.8518 59.8131 30.5792 60.9465 31.5103 61.5904C40.903 57.3421 43.7249 56.7105 45.9132 57.6238M17.1073 71.727L23.6915 68.2012C23.0493 70.1593 23.0154 71.1377 23.6915 72.6084L31.5103 68.2012C31.4126 70.0496 31.7886 70.7359 32.7448 71.727C38.6834 68.1925 41.3206 68.0872 45.9132 68.2012M16.6958 82.3043L23.6915 77.8971C22.9165 80.3474 22.9228 81.313 23.6915 82.3043L31.5103 79.2193C31.718 81.0399 32.01 81.6669 32.7448 82.3043C37.454 78.2314 39.1103 76.9299 40.975 75.6935" stroke="white" stroke-width="2.08696"/>
<g id="Vector 9">
<path d="M38.6423 90.6521C39.4249 89.0869 44.3814 79.9193 43.8485 79.9193C43.3452 79.9193 52.9177 79.3076 53.5054 79.1894C53.5075 79.1842 53.5097 79.1791 53.5119 79.1739C53.5434 79.1772 53.54 79.1824 53.5054 79.1894C51.0427 85.0437 37.8604 92.216 38.6423 90.6521Z" fill="#DDDDDD"/>
<path d="M43.8485 79.9193C44.3814 79.9193 39.4249 89.0869 38.6423 90.6521C37.8597 92.2174 51.066 85.031 53.5119 79.1739C54.0795 79.2334 43.3156 79.9193 43.8485 79.9193Z" stroke="#CCCCCC" stroke-width="0.521739"/>
</g>
</g>
</g>
<path id="NoteBeat" d="M133.42 36.7273V60H129.67L118.705 44.1477H118.511V60H114.295V36.7273H118.068L129.023 52.5909H129.227V36.7273H133.42ZM145.446 60.3409C143.741 60.3409 142.264 59.9659 141.014 59.2159C139.764 58.4659 138.795 57.4167 138.105 56.0682C137.423 54.7197 137.082 53.1439 137.082 51.3409C137.082 49.5379 137.423 47.9583 138.105 46.6023C138.795 45.2462 139.764 44.1932 141.014 43.4432C142.264 42.6932 143.741 42.3182 145.446 42.3182C147.151 42.3182 148.628 42.6932 149.878 43.4432C151.128 44.1932 152.094 45.2462 152.776 46.6023C153.465 47.9583 153.81 49.5379 153.81 51.3409C153.81 53.1439 153.465 54.7197 152.776 56.0682C152.094 57.4167 151.128 58.4659 149.878 59.2159C148.628 59.9659 147.151 60.3409 145.446 60.3409ZM145.469 57.0455C146.393 57.0455 147.166 56.7917 147.787 56.2841C148.408 55.7689 148.87 55.0795 149.173 54.2159C149.484 53.3523 149.639 52.3902 149.639 51.3295C149.639 50.2614 149.484 49.2955 149.173 48.4318C148.87 47.5606 148.408 46.8674 147.787 46.3523C147.166 45.8371 146.393 45.5795 145.469 45.5795C144.522 45.5795 143.734 45.8371 143.105 46.3523C142.484 46.8674 142.018 47.5606 141.707 48.4318C141.404 49.2955 141.253 50.2614 141.253 51.3295C141.253 52.3902 141.404 53.3523 141.707 54.2159C142.018 55.0795 142.484 55.7689 143.105 56.2841C143.734 56.7917 144.522 57.0455 145.469 57.0455ZM166.017 42.5455V45.7273H155.983V42.5455H166.017ZM158.46 38.3636H162.574V54.75C162.574 55.303 162.657 55.7273 162.824 56.0227C162.998 56.3106 163.225 56.5076 163.506 56.6136C163.786 56.7197 164.097 56.7727 164.438 56.7727C164.695 56.7727 164.93 56.7538 165.142 56.7159C165.362 56.678 165.528 56.6439 165.642 56.6136L166.335 59.8295C166.116 59.9053 165.801 59.9886 165.392 60.0795C164.991 60.1705 164.498 60.2235 163.915 60.2386C162.884 60.2689 161.956 60.1136 161.131 59.7727C160.305 59.4242 159.65 58.8864 159.165 58.1591C158.688 57.4318 158.453 56.5227 158.46 55.4318V38.3636ZM176.997 60.3409C175.247 60.3409 173.736 59.9773 172.463 59.25C171.198 58.5152 170.224 57.4773 169.543 56.1364C168.861 54.7879 168.52 53.2008 168.52 51.375C168.52 49.5795 168.861 48.0038 169.543 46.6477C170.232 45.2841 171.194 44.2235 172.429 43.4659C173.664 42.7008 175.115 42.3182 176.781 42.3182C177.857 42.3182 178.872 42.4924 179.827 42.8409C180.789 43.1818 181.637 43.7121 182.372 44.4318C183.115 45.1515 183.698 46.0682 184.122 47.1818C184.546 48.2879 184.759 49.6061 184.759 51.1364V52.3977H170.452V49.625H180.815C180.808 48.8371 180.637 48.1364 180.304 47.5227C179.971 46.9015 179.505 46.4129 178.906 46.0568C178.315 45.7008 177.626 45.5227 176.838 45.5227C175.997 45.5227 175.259 45.7273 174.622 46.1364C173.986 46.5379 173.49 47.0682 173.134 47.7273C172.785 48.3788 172.607 49.0947 172.599 49.875V52.2955C172.599 53.3106 172.785 54.1818 173.156 54.9091C173.527 55.6288 174.046 56.1818 174.713 56.5682C175.38 56.947 176.16 57.1364 177.054 57.1364C177.652 57.1364 178.194 57.053 178.679 56.8864C179.164 56.7121 179.584 56.4583 179.94 56.125C180.296 55.7917 180.565 55.3788 180.747 54.8864L184.588 55.3182C184.346 56.3333 183.884 57.2197 183.202 57.9773C182.527 58.7273 181.664 59.3106 180.611 59.7273C179.558 60.1364 178.353 60.3409 176.997 60.3409ZM188.42 60V36.7273H197.33C199.011 36.7273 200.409 36.9924 201.523 37.5227C202.644 38.0455 203.481 38.7614 204.034 39.6705C204.595 40.5795 204.875 41.6098 204.875 42.7614C204.875 43.7083 204.693 44.5189 204.33 45.1932C203.966 45.8598 203.477 46.4015 202.864 46.8182C202.25 47.2348 201.564 47.5341 200.807 47.7159V47.9432C201.633 47.9886 202.424 48.2424 203.182 48.7045C203.947 49.1591 204.572 49.803 205.057 50.6364C205.542 51.4697 205.784 52.4773 205.784 53.6591C205.784 54.8636 205.492 55.947 204.909 56.9091C204.326 57.8636 203.447 58.6174 202.273 59.1705C201.098 59.7235 199.621 60 197.841 60H188.42ZM192.636 56.4773H197.17C198.701 56.4773 199.803 56.1856 200.477 55.6023C201.159 55.0114 201.5 54.2538 201.5 53.3295C201.5 52.6402 201.33 52.0189 200.989 51.4659C200.648 50.9053 200.163 50.4659 199.534 50.1477C198.905 49.822 198.155 49.6591 197.284 49.6591H192.636V56.4773ZM192.636 46.625H196.807C197.534 46.625 198.189 46.4924 198.773 46.2273C199.356 45.9545 199.814 45.572 200.148 45.0795C200.489 44.5795 200.659 43.9886 200.659 43.3068C200.659 42.4053 200.341 41.6629 199.705 41.0795C199.076 40.4962 198.14 40.2045 196.898 40.2045H192.636V46.625ZM216.997 60.3409C215.247 60.3409 213.736 59.9773 212.463 59.25C211.198 58.5152 210.224 57.4773 209.543 56.1364C208.861 54.7879 208.52 53.2008 208.52 51.375C208.52 49.5795 208.861 48.0038 209.543 46.6477C210.232 45.2841 211.194 44.2235 212.429 43.4659C213.664 42.7008 215.115 42.3182 216.781 42.3182C217.857 42.3182 218.872 42.4924 219.827 42.8409C220.789 43.1818 221.637 43.7121 222.372 44.4318C223.115 45.1515 223.698 46.0682 224.122 47.1818C224.546 48.2879 224.759 49.6061 224.759 51.1364V52.3977H210.452V49.625H220.815C220.808 48.8371 220.637 48.1364 220.304 47.5227C219.971 46.9015 219.505 46.4129 218.906 46.0568C218.315 45.7008 217.626 45.5227 216.838 45.5227C215.997 45.5227 215.259 45.7273 214.622 46.1364C213.986 46.5379 213.49 47.0682 213.134 47.7273C212.785 48.3788 212.607 49.0947 212.599 49.875V52.2955C212.599 53.3106 212.785 54.1818 213.156 54.9091C213.527 55.6288 214.046 56.1818 214.713 56.5682C215.38 56.947 216.16 57.1364 217.054 57.1364C217.652 57.1364 218.194 57.053 218.679 56.8864C219.164 56.7121 219.584 56.4583 219.94 56.125C220.296 55.7917 220.565 55.3788 220.747 54.8864L224.588 55.3182C224.346 56.3333 223.884 57.2197 223.202 57.9773C222.527 58.7273 221.664 59.3106 220.611 59.7273C219.558 60.1364 218.353 60.3409 216.997 60.3409ZM233.261 60.3523C232.155 60.3523 231.159 60.1553 230.273 59.7614C229.394 59.3598 228.697 58.7689 228.182 57.9886C227.674 57.2083 227.42 56.2462 227.42 55.1023C227.42 54.1174 227.602 53.303 227.966 52.6591C228.33 52.0152 228.826 51.5 229.455 51.1136C230.083 50.7273 230.792 50.4356 231.58 50.2386C232.375 50.0341 233.197 49.8864 234.045 49.7955C235.068 49.6894 235.898 49.5947 236.534 49.5114C237.17 49.4205 237.633 49.2841 237.92 49.1023C238.216 48.9129 238.364 48.6212 238.364 48.2273V48.1591C238.364 47.303 238.11 46.6402 237.602 46.1705C237.095 45.7008 236.364 45.4659 235.409 45.4659C234.402 45.4659 233.602 45.6856 233.011 46.125C232.428 46.5644 232.034 47.0833 231.83 47.6818L227.989 47.1364C228.292 46.0758 228.792 45.1894 229.489 44.4773C230.186 43.7576 231.038 43.2197 232.045 42.8636C233.053 42.5 234.167 42.3182 235.386 42.3182C236.227 42.3182 237.064 42.4167 237.898 42.6136C238.731 42.8106 239.492 43.1364 240.182 43.5909C240.871 44.0379 241.424 44.6477 241.841 45.4205C242.265 46.1932 242.477 47.1591 242.477 48.3182V60H238.523V57.6023H238.386C238.136 58.0871 237.784 58.5417 237.33 58.9659C236.883 59.3826 236.318 59.7197 235.636 59.9773C234.962 60.2273 234.17 60.3523 233.261 60.3523ZM234.33 57.3295C235.155 57.3295 235.871 57.1667 236.477 56.8409C237.083 56.5076 237.549 56.0682 237.875 55.5227C238.208 54.9773 238.375 54.3826 238.375 53.7386V51.6818C238.246 51.7879 238.027 51.8864 237.716 51.9773C237.413 52.0682 237.072 52.1477 236.693 52.2159C236.314 52.2841 235.939 52.3447 235.568 52.3977C235.197 52.4508 234.875 52.4962 234.602 52.5341C233.989 52.6174 233.439 52.7538 232.955 52.9432C232.47 53.1326 232.087 53.3977 231.807 53.7386C231.527 54.072 231.386 54.5038 231.386 55.0341C231.386 55.7917 231.663 56.3636 232.216 56.75C232.769 57.1364 233.473 57.3295 234.33 57.3295ZM255.33 42.5455V45.7273H245.295V42.5455H255.33ZM247.773 38.3636H251.886V54.75C251.886 55.303 251.97 55.7273 252.136 56.0227C252.311 56.3106 252.538 56.5076 252.818 56.6136C253.098 56.7197 253.409 56.7727 253.75 56.7727C254.008 56.7727 254.242 56.7538 254.455 56.7159C254.674 56.678 254.841 56.6439 254.955 56.6136L255.648 59.8295C255.428 59.9053 255.114 59.9886 254.705 60.0795C254.303 60.1705 253.811 60.2235 253.227 60.2386C252.197 60.2689 251.269 60.1136 250.443 59.7727C249.617 59.4242 248.962 58.8864 248.477 58.1591C248 57.4318 247.765 56.5227 247.773 55.4318V38.3636Z" fill="black"/>
</g>
</svg>
