<svg width="91" height="68" viewBox="0 0 91 68" fill="none" xmlns="http://www.w3.org/2000/svg">
<g id="Tama&#195;&#177;o=Peque&#195;&#177;o_Vertical, Tema=Oscuro">
<g id="icon">
<g id="Dise&#195;&#177;o_interno">
<path id="Vector 8" d="M45.7811 16.0384V1.92259C46.0403 0.907012 46.5621 0.826736 47.9038 1.2168C49.4351 4.16107 50.9202 5.65495 54.8782 7.99238C57.936 10.6285 57.827 12.0694 57.0009 14.6268C53.3466 18.6222 52.7078 18.8967 53.0588 17.3088C55.8162 10.64 54.0278 9.04043 47.1457 8.55702V26.0606C46.1087 26.1706 45.4512 26.2892 44.1133 26.6252C42.8355 27.9231 43.3215 28.5698 43.052 29.7307C39.659 31.074 36.572 31.0765 33.5 29.7307V18.8616C36.046 16.5258 39.0839 16.0989 45.7811 16.0384Z" fill="black" stroke="black" stroke-width="0.695652"/>
<path id="Vector 10" d="M35.0653 20.5301L37.3972 19.2079C37.0318 19.925 37.1381 20.1561 37.3972 20.5301L40.0035 19.2079C39.784 19.9377 39.6931 20.3155 40.0035 20.5301C43.1344 19.114 44.075 18.9035 44.8044 19.2079M35.2025 23.909L37.3972 22.7337C37.1831 23.3864 37.1718 23.7125 37.3972 24.2028L40.0035 22.7337C39.9709 23.3498 40.0962 23.5786 40.415 23.909C42.3945 22.7308 43.2736 22.6957 44.8044 22.7337M35.0653 27.4347L37.3972 25.9657C37.1389 26.7824 37.141 27.1043 37.3972 27.4347L40.0035 26.4064C40.0727 27.0133 40.17 27.2223 40.415 27.4347C41.9847 26.0771 42.5368 25.6433 43.1584 25.2311" stroke="white" stroke-width="0.695652"/>
<g id="Vector 9">
<path d="M42.3808 30.2174C42.6416 29.6956 44.2938 26.6398 44.1162 26.6398C43.9484 26.6398 47.1392 26.4359 47.3351 26.3965C47.3358 26.3947 47.3366 26.393 47.3373 26.3913C47.3478 26.3924 47.3467 26.3941 47.3351 26.3965C46.5142 28.3479 42.1201 30.7387 42.3808 30.2174Z" fill="#DDDDDD"/>
<path d="M44.1162 26.6398C44.2938 26.6398 42.6416 29.6956 42.3808 30.2174C42.1199 30.7391 46.522 28.3437 47.3373 26.3913C47.5265 26.4111 43.9385 26.6398 44.1162 26.6398Z" stroke="#CCCCCC" stroke-width="0.173913"/>
</g>
</g>
</g>
<path id="NoteBeat" d="M13.3878 48.4545V63H11.044L4.19034 53.0923H4.0696V63H1.43466V48.4545H3.79261L10.6392 58.3693H10.767V48.4545H13.3878ZM20.9038 63.2131C19.8384 63.2131 18.9151 62.9787 18.1339 62.5099C17.3526 62.0412 16.7466 61.3854 16.3157 60.5426C15.8896 59.6998 15.6765 58.715 15.6765 57.5881C15.6765 56.4612 15.8896 55.474 16.3157 54.6264C16.7466 53.7789 17.3526 53.1207 18.1339 52.652C18.9151 52.1832 19.8384 51.9489 20.9038 51.9489C21.9691 51.9489 22.8924 52.1832 23.6737 52.652C24.4549 53.1207 25.0586 53.7789 25.4847 54.6264C25.9156 55.474 26.131 56.4612 26.131 57.5881C26.131 58.715 25.9156 59.6998 25.4847 60.5426C25.0586 61.3854 24.4549 62.0412 23.6737 62.5099C22.8924 62.9787 21.9691 63.2131 20.9038 63.2131ZM20.918 61.1534C21.4956 61.1534 21.9786 60.9948 22.3668 60.6776C22.7551 60.3556 23.0439 59.9247 23.2333 59.3849C23.4274 58.8452 23.5245 58.2438 23.5245 57.581C23.5245 56.9134 23.4274 56.3097 23.2333 55.7699C23.0439 55.2254 22.7551 54.7921 22.3668 54.4702C21.9786 54.1482 21.4956 53.9872 20.918 53.9872C20.3261 53.9872 19.8337 54.1482 19.4407 54.4702C19.0524 54.7921 18.7612 55.2254 18.5671 55.7699C18.3777 56.3097 18.283 56.9134 18.283 57.581C18.283 58.2438 18.3777 58.8452 18.5671 59.3849C18.7612 59.9247 19.0524 60.3556 19.4407 60.6776C19.8337 60.9948 20.3261 61.1534 20.918 61.1534ZM33.7607 52.0909V54.0795H27.4893V52.0909H33.7607ZM29.0376 49.4773H31.6087V59.7188C31.6087 60.0644 31.6607 60.3295 31.7649 60.5142C31.8738 60.6941 32.0159 60.8172 32.1911 60.8835C32.3662 60.9498 32.5604 60.983 32.7734 60.983C32.9344 60.983 33.0812 60.9711 33.2138 60.9474C33.3511 60.9238 33.4553 60.9025 33.5263 60.8835L33.9595 62.8935C33.8222 62.9408 33.6257 62.9929 33.37 63.0497C33.1191 63.1065 32.8113 63.1397 32.4467 63.1491C31.8028 63.1681 31.2228 63.071 30.7067 62.858C30.1906 62.6402 29.781 62.304 29.478 61.8494C29.1797 61.3949 29.0329 60.8267 29.0376 60.1449V49.4773ZM40.6232 63.2131C39.5295 63.2131 38.5849 62.9858 37.7894 62.5312C36.9987 62.072 36.3903 61.4233 35.9641 60.5852C35.538 59.7424 35.3249 58.7505 35.3249 57.6094C35.3249 56.4872 35.538 55.5024 35.9641 54.6548C36.395 53.8026 36.9963 53.1397 37.7681 52.6662C38.5399 52.188 39.4466 51.9489 40.4883 51.9489C41.1606 51.9489 41.7951 52.0578 42.3917 52.2756C42.993 52.4886 43.5233 52.8201 43.9826 53.2699C44.4466 53.7197 44.8112 54.2926 45.0763 54.9886C45.3415 55.6799 45.4741 56.5038 45.4741 57.4602V58.2486H36.5323V56.5156H43.0096C43.0049 56.0232 42.8983 55.5852 42.69 55.2017C42.4817 54.8134 42.1905 54.508 41.8164 54.2855C41.4471 54.063 41.0162 53.9517 40.5238 53.9517C39.9982 53.9517 39.5366 54.0795 39.1388 54.3352C38.7411 54.5862 38.431 54.9176 38.2085 55.3295C37.9906 55.7367 37.8794 56.1842 37.8746 56.6719V58.1847C37.8746 58.8191 37.9906 59.3636 38.2227 59.8182C38.4547 60.268 38.779 60.6136 39.1957 60.8551C39.6123 61.0919 40.1 61.2102 40.6587 61.2102C41.0328 61.2102 41.3713 61.1581 41.6744 61.054C41.9774 60.9451 42.2402 60.7865 42.4627 60.5781C42.6853 60.3698 42.8533 60.1117 42.967 59.804L45.3675 60.0739C45.216 60.7083 44.9272 61.2623 44.5011 61.7358C44.0797 62.2045 43.5399 62.5691 42.8817 62.8295C42.2236 63.0852 41.4708 63.2131 40.6232 63.2131ZM47.7628 63V48.4545H53.331C54.3821 48.4545 55.2557 48.6203 55.9517 48.9517C56.6525 49.2784 57.1757 49.7259 57.5213 50.294C57.8717 50.8622 58.0469 51.5062 58.0469 52.2259C58.0469 52.8177 57.9332 53.3243 57.706 53.7457C57.4787 54.1624 57.1733 54.5009 56.7898 54.7614C56.4062 55.0218 55.9777 55.2088 55.5043 55.3224V55.4645C56.0204 55.4929 56.5152 55.6515 56.9886 55.9403C57.4669 56.2244 57.8575 56.6269 58.1605 57.1477C58.4635 57.6686 58.6151 58.2983 58.6151 59.0369C58.6151 59.7898 58.4328 60.4669 58.0682 61.0682C57.7036 61.6648 57.1544 62.1359 56.4205 62.4815C55.6866 62.8272 54.7633 63 53.6506 63H47.7628ZM50.3977 60.7983H53.2315C54.188 60.7983 54.8769 60.616 55.2983 60.2514C55.7244 59.8821 55.9375 59.4086 55.9375 58.831C55.9375 58.4001 55.831 58.0118 55.6179 57.6662C55.4048 57.3158 55.1018 57.0412 54.7088 56.8423C54.3158 56.6387 53.8471 56.5369 53.3026 56.5369H50.3977V60.7983ZM50.3977 54.6406H53.0043C53.4588 54.6406 53.8684 54.5578 54.233 54.392C54.5975 54.2216 54.884 53.9825 55.0923 53.6747C55.3054 53.3622 55.4119 52.9929 55.4119 52.5668C55.4119 52.0033 55.2131 51.5393 54.8153 51.1747C54.4223 50.8101 53.8376 50.6278 53.0611 50.6278H50.3977V54.6406ZM65.6232 63.2131C64.5295 63.2131 63.5849 62.9858 62.7894 62.5312C61.9987 62.072 61.3903 61.4233 60.9641 60.5852C60.538 59.7424 60.3249 58.7505 60.3249 57.6094C60.3249 56.4872 60.538 55.5024 60.9641 54.6548C61.395 53.8026 61.9963 53.1397 62.7681 52.6662C63.5399 52.188 64.4466 51.9489 65.4883 51.9489C66.1606 51.9489 66.7951 52.0578 67.3917 52.2756C67.993 52.4886 68.5233 52.8201 68.9826 53.2699C69.4466 53.7197 69.8112 54.2926 70.0763 54.9886C70.3415 55.6799 70.4741 56.5038 70.4741 57.4602V58.2486H61.5323V56.5156H68.0096C68.0049 56.0232 67.8983 55.5852 67.69 55.2017C67.4817 54.8134 67.1905 54.508 66.8164 54.2855C66.4471 54.063 66.0162 53.9517 65.5238 53.9517C64.9982 53.9517 64.5366 54.0795 64.1388 54.3352C63.7411 54.5862 63.431 54.9176 63.2085 55.3295C62.9906 55.7367 62.8794 56.1842 62.8746 56.6719V58.1847C62.8746 58.8191 62.9906 59.3636 63.2227 59.8182C63.4547 60.268 63.779 60.6136 64.1957 60.8551C64.6123 61.0919 65.1 61.2102 65.6587 61.2102C66.0328 61.2102 66.3713 61.1581 66.6744 61.054C66.9774 60.9451 67.2402 60.7865 67.4627 60.5781C67.6853 60.3698 67.8533 60.1117 67.967 59.804L70.3675 60.0739C70.216 60.7083 69.9272 61.2623 69.5011 61.7358C69.0797 62.2045 68.5399 62.5691 67.8817 62.8295C67.2236 63.0852 66.4708 63.2131 65.6232 63.2131ZM75.7884 63.2202C75.0971 63.2202 74.4744 63.0971 73.9205 62.8509C73.3712 62.5999 72.9356 62.2306 72.6136 61.7429C72.2964 61.2552 72.1378 60.6539 72.1378 59.9389C72.1378 59.3234 72.2514 58.8144 72.4787 58.4119C72.706 58.0095 73.0161 57.6875 73.4091 57.446C73.8021 57.2045 74.2448 57.0223 74.7372 56.8991C75.2344 56.7713 75.7481 56.679 76.2784 56.6222C76.9176 56.5559 77.4361 56.4967 77.8338 56.4446C78.2315 56.3878 78.5204 56.3026 78.7003 56.1889C78.8849 56.0705 78.9773 55.8883 78.9773 55.642V55.5994C78.9773 55.0644 78.8187 54.6501 78.5014 54.3565C78.1842 54.063 77.7273 53.9162 77.1307 53.9162C76.5009 53.9162 76.0014 54.0535 75.6321 54.3281C75.2675 54.6027 75.0213 54.9271 74.8935 55.3011L72.4929 54.9602C72.6823 54.2973 72.9948 53.7434 73.4304 53.2983C73.866 52.8485 74.3987 52.5123 75.0284 52.2898C75.6581 52.0625 76.3542 51.9489 77.1165 51.9489C77.642 51.9489 78.1652 52.0104 78.6861 52.1335C79.2069 52.2566 79.6828 52.4602 80.1136 52.7443C80.5445 53.0237 80.8902 53.4048 81.1506 53.8878C81.4157 54.3707 81.5483 54.9744 81.5483 55.6989V63H79.0767V61.5014H78.9915C78.8352 61.8045 78.6151 62.0885 78.331 62.3537C78.0516 62.6141 77.6989 62.8248 77.2727 62.9858C76.8513 63.142 76.3565 63.2202 75.7884 63.2202ZM76.456 61.331C76.9721 61.331 77.4195 61.2292 77.7983 61.0256C78.1771 60.8172 78.4683 60.5426 78.6719 60.2017C78.8802 59.8608 78.9844 59.4891 78.9844 59.0866V57.8011C78.9039 57.8674 78.7666 57.929 78.5724 57.9858C78.383 58.0426 78.17 58.0923 77.9332 58.1349C77.6965 58.1776 77.4621 58.2154 77.2301 58.2486C76.9981 58.2817 76.7969 58.3101 76.6264 58.3338C76.2429 58.3859 75.8996 58.4711 75.5966 58.5895C75.2936 58.7079 75.0545 58.8736 74.8793 59.0866C74.7041 59.295 74.6165 59.5649 74.6165 59.8963C74.6165 60.3698 74.7893 60.7273 75.1349 60.9688C75.4806 61.2102 75.9209 61.331 76.456 61.331ZM89.581 52.0909V54.0795H83.3097V52.0909H89.581ZM84.858 49.4773H87.429V59.7188C87.429 60.0644 87.4811 60.3295 87.5852 60.5142C87.6941 60.6941 87.8362 60.8172 88.0114 60.8835C88.1866 60.9498 88.3807 60.983 88.5938 60.983C88.7547 60.983 88.9015 60.9711 89.0341 60.9474C89.1714 60.9238 89.2756 60.9025 89.3466 60.8835L89.7798 62.8935C89.6425 62.9408 89.446 62.9929 89.1903 63.0497C88.9394 63.1065 88.6316 63.1397 88.267 63.1491C87.6231 63.1681 87.0431 63.071 86.527 62.858C86.0109 62.6402 85.6013 62.304 85.2983 61.8494C85 61.3949 84.8532 60.8267 84.858 60.1449V49.4773Z" fill="black"/>
</g>
</svg>
