<svg width="109" height="84" viewBox="0 0 109 84" fill="none" xmlns="http://www.w3.org/2000/svg">
<g id="Tama&#195;&#177;o=Mediano_Vertical, Tema=Oscuro">
<g id="icon">
<g id="Dise&#195;&#177;o_interno">
<path id="Vector 8" d="M54.9217 24.0576V2.88388C55.3104 1.36052 56.0932 1.2401 58.1057 1.8252C60.4026 6.2416 62.6302 8.48243 68.5674 11.9886C73.154 15.9427 72.9905 18.1042 71.7514 21.9402C66.2699 27.9333 65.3117 28.345 65.8382 25.9632C69.9743 15.96 67.2917 13.5606 56.9685 12.8355V39.0909C55.413 39.2559 54.4268 39.4338 52.42 39.9379C50.5033 41.8846 51.2323 42.8547 50.828 44.5961C45.7384 46.611 41.108 46.6148 36.5 44.5961V28.2923C40.319 24.7888 44.8758 24.1484 54.9217 24.0576Z" fill="black" stroke="black" stroke-width="1.04348"/>
<path id="Vector 10" d="M38.8479 30.7952L42.3458 28.8119C41.7976 29.8876 41.9571 30.2342 42.3458 30.7952L46.2551 28.8119C45.9259 29.9065 45.7896 30.4733 46.2551 30.7952C50.9515 28.6711 52.3625 28.3553 53.4566 28.8119M39.0537 35.8635L42.3458 34.1006C42.0246 35.0796 42.0077 35.5689 42.3458 36.3042L46.2551 34.1006C46.2063 35.0248 46.3943 35.368 46.8724 35.8635C49.8417 34.0962 51.1603 34.0436 53.4566 34.1006M38.8479 41.1522L42.3458 38.9486C41.9583 40.1737 41.9614 40.6565 42.3458 41.1522L46.2551 39.6096C46.359 40.5199 46.505 40.8335 46.8724 41.1522C49.227 39.1157 50.0551 38.4649 50.9875 37.8467" stroke="white" stroke-width="1.04348"/>
<g id="Vector 9">
<path d="M49.8211 45.3261C50.2124 44.5435 52.6907 39.9597 52.4243 39.9597C52.1726 39.9597 56.9589 39.6538 57.2527 39.5947C57.2538 39.5921 57.2549 39.5896 57.2559 39.587C57.2717 39.5886 57.27 39.5913 57.2527 39.5947C56.0213 42.5219 49.4302 46.108 49.8211 45.3261Z" fill="#DDDDDD"/>
<path d="M52.4243 39.9597C52.6907 39.9597 50.2124 44.5435 49.8211 45.3261C49.4298 46.1087 56.033 42.5156 57.2559 39.587C57.5397 39.6167 52.1578 39.9597 52.4243 39.9597Z" stroke="#CCCCCC" stroke-width="0.26087"/>
</g>
</g>
</g>
<path id="NoteBeat" d="M16.0653 63.5455V81H13.2528L5.02841 69.1108H4.88352V81H1.72159V63.5455H4.55114L12.767 75.4432H12.9205V63.5455H16.0653ZM25.0845 81.2557C23.8061 81.2557 22.6982 80.9744 21.7607 80.4119C20.8232 79.8494 20.0959 79.0625 19.5788 78.0511C19.0675 77.0398 18.8118 75.858 18.8118 74.5057C18.8118 73.1534 19.0675 71.9687 19.5788 70.9517C20.0959 69.9347 20.8232 69.1449 21.7607 68.5824C22.6982 68.0199 23.8061 67.7386 25.0845 67.7386C26.3629 67.7386 27.4709 68.0199 28.4084 68.5824C29.3459 69.1449 30.0703 69.9347 30.5817 70.9517C31.0987 71.9687 31.3572 73.1534 31.3572 74.5057C31.3572 75.858 31.0987 77.0398 30.5817 78.0511C30.0703 79.0625 29.3459 79.8494 28.4084 80.4119C27.4709 80.9744 26.3629 81.2557 25.0845 81.2557ZM25.1016 78.7841C25.7947 78.7841 26.3743 78.5937 26.8402 78.2131C27.3061 77.8267 27.6527 77.3097 27.88 76.6619C28.1129 76.0142 28.2294 75.2926 28.2294 74.4972C28.2294 73.696 28.1129 72.9716 27.88 72.3239C27.6527 71.6705 27.3061 71.1506 26.8402 70.7642C26.3743 70.3778 25.7947 70.1847 25.1016 70.1847C24.3913 70.1847 23.8004 70.3778 23.3288 70.7642C22.8629 71.1506 22.5135 71.6705 22.2805 72.3239C22.0533 72.9716 21.9396 73.696 21.9396 74.4972C21.9396 75.2926 22.0533 76.0142 22.2805 76.6619C22.5135 77.3097 22.8629 77.8267 23.3288 78.2131C23.8004 78.5937 24.3913 78.7841 25.1016 78.7841ZM40.5128 67.9091V70.2955H32.9872V67.9091H40.5128ZM34.8452 64.7727H37.9304V77.0625C37.9304 77.4773 37.9929 77.7955 38.1179 78.017C38.2486 78.233 38.419 78.3807 38.6293 78.4602C38.8395 78.5398 39.0724 78.5795 39.3281 78.5795C39.5213 78.5795 39.6974 78.5653 39.8565 78.5369C40.0213 78.5085 40.1463 78.483 40.2315 78.4602L40.7514 80.8722C40.5866 80.929 40.3509 80.9915 40.044 81.0597C39.7429 81.1278 39.3736 81.1676 38.9361 81.179C38.1634 81.2017 37.4673 81.0852 36.848 80.8295C36.2287 80.5682 35.7372 80.1648 35.3736 79.6193C35.0156 79.0739 34.8395 78.392 34.8452 77.5739V64.7727ZM48.7479 81.2557C47.4354 81.2557 46.3018 80.983 45.3473 80.4375C44.3984 79.8864 43.6683 79.108 43.157 78.1023C42.6456 77.0909 42.3899 75.9006 42.3899 74.5312C42.3899 73.1847 42.6456 72.0028 43.157 70.9858C43.674 69.9631 44.3956 69.1676 45.3217 68.5994C46.2479 68.0256 47.3359 67.7386 48.5859 67.7386C49.3928 67.7386 50.1541 67.8693 50.87 68.1307C51.5916 68.3864 52.228 68.7841 52.7791 69.3239C53.3359 69.8636 53.7734 70.5511 54.0916 71.3864C54.4098 72.2159 54.5689 73.2045 54.5689 74.3523V75.2983H43.8388V73.2188H51.6115C51.6058 72.6278 51.478 72.1023 51.228 71.642C50.978 71.1761 50.6286 70.8097 50.1797 70.5426C49.7365 70.2756 49.2195 70.142 48.6286 70.142C47.9979 70.142 47.4439 70.2955 46.9666 70.6023C46.4893 70.9034 46.1172 71.3011 45.8501 71.7955C45.5888 72.2841 45.4553 72.821 45.4496 73.4062V75.2216C45.4496 75.983 45.5888 76.6364 45.8672 77.1818C46.1456 77.7216 46.5348 78.1364 47.0348 78.4261C47.5348 78.7102 48.12 78.8523 48.7905 78.8523C49.2393 78.8523 49.6456 78.7898 50.0092 78.6648C50.3729 78.5341 50.6882 78.3438 50.9553 78.0938C51.2223 77.8438 51.424 77.5341 51.5604 77.1648L54.4411 77.4886C54.2592 78.25 53.9126 78.9148 53.4013 79.483C52.8956 80.0455 52.2479 80.483 51.4581 80.7955C50.6683 81.1023 49.7649 81.2557 48.7479 81.2557ZM57.3153 81V63.5455H63.9972C65.2585 63.5455 66.3068 63.7443 67.142 64.142C67.983 64.5341 68.6108 65.071 69.0256 65.7528C69.446 66.4347 69.6562 67.2074 69.6562 68.071C69.6562 68.7812 69.5199 69.3892 69.2472 69.8949C68.9744 70.3949 68.608 70.8011 68.1477 71.1136C67.6875 71.4261 67.1733 71.6506 66.6051 71.7869V71.9574C67.2244 71.9915 67.8182 72.1818 68.3864 72.5284C68.9602 72.8693 69.429 73.3523 69.7926 73.9773C70.1563 74.6023 70.3381 75.358 70.3381 76.2443C70.3381 77.1477 70.1193 77.9602 69.6818 78.6818C69.2443 79.3977 68.5852 79.9631 67.7045 80.3778C66.8239 80.7926 65.7159 81 64.3807 81H57.3153ZM60.4773 78.358H63.8778C65.0256 78.358 65.8523 78.1392 66.358 77.7017C66.8693 77.2585 67.125 76.6903 67.125 75.9972C67.125 75.4801 66.9972 75.0142 66.7415 74.5994C66.4858 74.179 66.1222 73.8494 65.6506 73.6108C65.179 73.3665 64.6165 73.2443 63.9631 73.2443H60.4773V78.358ZM60.4773 70.9688H63.6051C64.1506 70.9688 64.642 70.8693 65.0795 70.6705C65.517 70.4659 65.8608 70.179 66.1108 69.8097C66.3665 69.4347 66.4943 68.9915 66.4943 68.4801C66.4943 67.804 66.2557 67.2472 65.7784 66.8097C65.3068 66.3722 64.6051 66.1534 63.6733 66.1534H60.4773V70.9688ZM78.7479 81.2557C77.4354 81.2557 76.3018 80.983 75.3473 80.4375C74.3984 79.8864 73.6683 79.108 73.157 78.1023C72.6456 77.0909 72.3899 75.9006 72.3899 74.5312C72.3899 73.1847 72.6456 72.0028 73.157 70.9858C73.674 69.9631 74.3956 69.1676 75.3217 68.5994C76.2479 68.0256 77.3359 67.7386 78.5859 67.7386C79.3928 67.7386 80.1541 67.8693 80.87 68.1307C81.5916 68.3864 82.228 68.7841 82.7791 69.3239C83.3359 69.8636 83.7734 70.5511 84.0916 71.3864C84.4098 72.2159 84.5689 73.2045 84.5689 74.3523V75.2983H73.8388V73.2188H81.6115C81.6058 72.6278 81.478 72.1023 81.228 71.642C80.978 71.1761 80.6286 70.8097 80.1797 70.5426C79.7365 70.2756 79.2195 70.142 78.6286 70.142C77.9979 70.142 77.4439 70.2955 76.9666 70.6023C76.4893 70.9034 76.1172 71.3011 75.8501 71.7955C75.5888 72.2841 75.4553 72.821 75.4496 73.4062V75.2216C75.4496 75.983 75.5888 76.6364 75.8672 77.1818C76.1456 77.7216 76.5348 78.1364 77.0348 78.4261C77.5348 78.7102 78.12 78.8523 78.7905 78.8523C79.2393 78.8523 79.6456 78.7898 80.0092 78.6648C80.3729 78.5341 80.6882 78.3438 80.9553 78.0938C81.2223 77.8438 81.424 77.5341 81.5604 77.1648L84.4411 77.4886C84.2592 78.25 83.9126 78.9148 83.4013 79.483C82.8956 80.0455 82.2479 80.483 81.4581 80.7955C80.6683 81.1023 79.7649 81.2557 78.7479 81.2557ZM90.946 81.2642C90.1165 81.2642 89.3693 81.1165 88.7045 80.821C88.0455 80.5199 87.5227 80.0767 87.1364 79.4915C86.7557 78.9062 86.5653 78.1847 86.5653 77.3267C86.5653 76.5881 86.7017 75.9773 86.9744 75.4943C87.2472 75.0114 87.6193 74.625 88.0909 74.3352C88.5625 74.0455 89.0938 73.8267 89.6847 73.679C90.2813 73.5256 90.8977 73.4148 91.5341 73.3466C92.3011 73.267 92.9233 73.196 93.4006 73.1335C93.8778 73.0653 94.2244 72.9631 94.4403 72.8267C94.6619 72.6847 94.7727 72.4659 94.7727 72.1705V72.1193C94.7727 71.4773 94.5824 70.9801 94.2017 70.6278C93.821 70.2756 93.2727 70.0994 92.5568 70.0994C91.8011 70.0994 91.2017 70.2642 90.7585 70.5938C90.321 70.9233 90.0256 71.3125 89.8722 71.7614L86.9915 71.3523C87.2188 70.5568 87.5938 69.892 88.1165 69.358C88.6392 68.8182 89.2784 68.4148 90.0341 68.1477C90.7898 67.875 91.625 67.7386 92.5398 67.7386C93.1705 67.7386 93.7983 67.8125 94.4233 67.9602C95.0483 68.108 95.6193 68.3523 96.1364 68.6932C96.6534 69.0284 97.0682 69.4858 97.3807 70.0653C97.6989 70.6449 97.858 71.3693 97.858 72.2386V81H94.892V79.2017H94.7898C94.6023 79.5653 94.3381 79.9062 93.9972 80.2244C93.6619 80.5369 93.2386 80.7898 92.7273 80.983C92.2216 81.1705 91.6278 81.2642 90.946 81.2642ZM91.7472 78.9972C92.3665 78.9972 92.9034 78.875 93.358 78.6307C93.8125 78.3807 94.1619 78.0511 94.4062 77.642C94.6562 77.233 94.7812 76.7869 94.7812 76.304V74.7614C94.6847 74.8409 94.5199 74.9148 94.2869 74.983C94.0597 75.0511 93.804 75.1108 93.5199 75.1619C93.2358 75.2131 92.9545 75.2585 92.6761 75.2983C92.3977 75.3381 92.1563 75.3722 91.9517 75.4006C91.4915 75.4631 91.0795 75.5653 90.7159 75.7074C90.3523 75.8494 90.0653 76.0483 89.8551 76.304C89.6449 76.554 89.5398 76.8778 89.5398 77.2756C89.5398 77.8438 89.7472 78.2727 90.1619 78.5625C90.5767 78.8523 91.1051 78.9972 91.7472 78.9972ZM107.497 67.9091V70.2955H99.9716V67.9091H107.497ZM101.83 64.7727H104.915V77.0625C104.915 77.4773 104.977 77.7955 105.102 78.017C105.233 78.233 105.403 78.3807 105.614 78.4602C105.824 78.5398 106.057 78.5795 106.312 78.5795C106.506 78.5795 106.682 78.5653 106.841 78.5369C107.006 78.5085 107.131 78.483 107.216 78.4602L107.736 80.8722C107.571 80.929 107.335 80.9915 107.028 81.0597C106.727 81.1278 106.358 81.1676 105.92 81.179C105.148 81.2017 104.452 81.0852 103.832 80.8295C103.213 80.5682 102.722 80.1648 102.358 79.6193C102 79.0739 101.824 78.392 101.83 77.5739V64.7727Z" fill="black"/>
</g>
</svg>
