<svg width="145" height="137" viewBox="0 0 145 137" fill="none" xmlns="http://www.w3.org/2000/svg">
<g id="Tama&#195;&#177;o=Grande_Vertical, Tema=Oscuro">
<g id="icon">
<g id="Dise&#195;&#177;o_interno">
<path id="Vector 8" d="M73.3434 48.1152V5.76777C74.1208 2.72104 75.6864 2.48021 79.7113 3.6504C84.3053 12.4832 88.7605 16.9649 100.635 23.9772C109.808 31.8854 109.481 36.2083 107.003 43.8804C96.0397 55.8666 94.1233 56.69 95.1765 51.9264C103.449 31.92 98.0835 27.1213 77.4371 25.6711V78.1818C74.326 78.5118 72.3537 78.8677 68.3399 79.8757C64.5066 83.7693 65.9646 85.7095 65.1559 89.1922C54.9769 93.222 45.716 93.2296 36.5 89.1922V56.5847C44.1381 49.5775 53.2516 48.2967 73.3434 48.1152Z" fill="black" stroke="black" stroke-width="2.08696"/>
<path id="Vector 10" d="M41.1958 61.5904L48.1915 57.6239C47.0952 59.7752 47.4141 60.4685 48.1915 61.5904L56.0103 57.6239C55.3518 59.8131 55.0792 60.9465 56.0103 61.5904C65.403 57.3422 68.2249 56.7105 70.4132 57.6239M41.6073 71.727L48.1915 68.2012C47.5493 70.1593 47.5154 71.1377 48.1915 72.6084L56.0103 68.2012C55.9126 70.0496 56.2886 70.7359 57.2448 71.727C63.1834 68.1925 65.8206 68.0872 70.4132 68.2012M41.1958 82.3043L48.1915 77.8971C47.4165 80.3474 47.4228 81.313 48.1915 82.3043L56.0103 79.2193C56.218 81.0399 56.51 81.6669 57.2448 82.3043C61.954 78.2314 63.6103 76.9299 65.475 75.6935" stroke="white" stroke-width="2.08696"/>
<g id="Vector 9">
<path d="M63.1423 90.6522C63.9249 89.087 68.8814 79.9194 68.3485 79.9194C67.8452 79.9194 77.4177 79.3076 78.0054 79.1895C78.0075 79.1843 78.0097 79.1791 78.0119 79.174C78.0434 79.1773 78.04 79.1825 78.0054 79.1895C75.5427 85.0438 62.3604 92.2161 63.1423 90.6522Z" fill="#DDDDDD"/>
<path d="M68.3485 79.9194C68.8814 79.9194 63.9249 89.087 63.1423 90.6522C62.3597 92.2174 75.566 85.0311 78.0119 79.174C78.5795 79.2335 67.8156 79.9194 68.3485 79.9194Z" stroke="#CCCCCC" stroke-width="0.521739"/>
</g>
</g>
</g>
<path id="NoteBeat" d="M21.4205 112.727V136H17.6705L6.70455 120.148H6.51136V136H2.29545V112.727H6.06818L17.0227 128.591H17.2273V112.727H21.4205ZM33.446 136.341C31.7415 136.341 30.2642 135.966 29.0142 135.216C27.7642 134.466 26.7945 133.417 26.1051 132.068C25.4233 130.72 25.0824 129.144 25.0824 127.341C25.0824 125.538 25.4233 123.958 26.1051 122.602C26.7945 121.246 27.7642 120.193 29.0142 119.443C30.2642 118.693 31.7415 118.318 33.446 118.318C35.1506 118.318 36.6278 118.693 37.8778 119.443C39.1278 120.193 40.0938 121.246 40.7756 122.602C41.465 123.958 41.8097 125.538 41.8097 127.341C41.8097 129.144 41.465 130.72 40.7756 132.068C40.0938 133.417 39.1278 134.466 37.8778 135.216C36.6278 135.966 35.1506 136.341 33.446 136.341ZM33.4688 133.045C34.393 133.045 35.1657 132.792 35.7869 132.284C36.4081 131.769 36.8703 131.08 37.1733 130.216C37.4839 129.352 37.6392 128.39 37.6392 127.33C37.6392 126.261 37.4839 125.295 37.1733 124.432C36.8703 123.561 36.4081 122.867 35.7869 122.352C35.1657 121.837 34.393 121.58 33.4688 121.58C32.5218 121.58 31.7339 121.837 31.1051 122.352C30.4839 122.867 30.018 123.561 29.7074 124.432C29.4044 125.295 29.2528 126.261 29.2528 127.33C29.2528 128.39 29.4044 129.352 29.7074 130.216C30.018 131.08 30.4839 131.769 31.1051 132.284C31.7339 132.792 32.5218 133.045 33.4688 133.045ZM54.017 118.545V121.727H43.983V118.545H54.017ZM46.4602 114.364H50.5739V130.75C50.5739 131.303 50.6572 131.727 50.8239 132.023C50.9981 132.311 51.2254 132.508 51.5057 132.614C51.786 132.72 52.0966 132.773 52.4375 132.773C52.6951 132.773 52.9299 132.754 53.142 132.716C53.3617 132.678 53.5284 132.644 53.642 132.614L54.3352 135.83C54.1155 135.905 53.8011 135.989 53.392 136.08C52.9905 136.17 52.4981 136.223 51.9148 136.239C50.8845 136.269 49.9564 136.114 49.1307 135.773C48.3049 135.424 47.6496 134.886 47.1648 134.159C46.6875 133.432 46.4527 132.523 46.4602 131.432V114.364ZM64.9972 136.341C63.2472 136.341 61.7358 135.977 60.4631 135.25C59.1979 134.515 58.2244 133.477 57.5426 132.136C56.8608 130.788 56.5199 129.201 56.5199 127.375C56.5199 125.58 56.8608 124.004 57.5426 122.648C58.232 121.284 59.1941 120.223 60.429 119.466C61.6638 118.701 63.1146 118.318 64.7812 118.318C65.857 118.318 66.8722 118.492 67.8267 118.841C68.7888 119.182 69.6373 119.712 70.3722 120.432C71.1146 121.152 71.6979 122.068 72.1222 123.182C72.5464 124.288 72.7585 125.606 72.7585 127.136V128.398H58.4517V125.625H68.8153C68.8078 124.837 68.6373 124.136 68.304 123.523C67.9706 122.902 67.5047 122.413 66.9062 122.057C66.3153 121.701 65.6259 121.523 64.8381 121.523C63.9972 121.523 63.2585 121.727 62.6222 122.136C61.9858 122.538 61.4896 123.068 61.1335 123.727C60.785 124.379 60.607 125.095 60.5994 125.875V128.295C60.5994 129.311 60.785 130.182 61.1562 130.909C61.5275 131.629 62.0464 132.182 62.7131 132.568C63.3797 132.947 64.16 133.136 65.054 133.136C65.6525 133.136 66.1941 133.053 66.679 132.886C67.1638 132.712 67.5843 132.458 67.9403 132.125C68.2964 131.792 68.5653 131.379 68.7472 130.886L72.5881 131.318C72.3456 132.333 71.8835 133.22 71.2017 133.977C70.5275 134.727 69.6638 135.311 68.6108 135.727C67.5578 136.136 66.3532 136.341 64.9972 136.341ZM76.4205 136V112.727H85.3295C87.0114 112.727 88.4091 112.992 89.5227 113.523C90.6439 114.045 91.4811 114.761 92.0341 115.67C92.5947 116.58 92.875 117.61 92.875 118.761C92.875 119.708 92.6932 120.519 92.3295 121.193C91.9659 121.86 91.4773 122.402 90.8636 122.818C90.25 123.235 89.5644 123.534 88.8068 123.716V123.943C89.6326 123.989 90.4242 124.242 91.1818 124.705C91.947 125.159 92.572 125.803 93.0568 126.636C93.5417 127.47 93.7841 128.477 93.7841 129.659C93.7841 130.864 93.4924 131.947 92.9091 132.909C92.3258 133.864 91.447 134.617 90.2727 135.17C89.0985 135.723 87.6212 136 85.8409 136H76.4205ZM80.6364 132.477H85.1705C86.7008 132.477 87.803 132.186 88.4773 131.602C89.1591 131.011 89.5 130.254 89.5 129.33C89.5 128.64 89.3295 128.019 88.9886 127.466C88.6477 126.905 88.1629 126.466 87.5341 126.148C86.9053 125.822 86.1553 125.659 85.2841 125.659H80.6364V132.477ZM80.6364 122.625H84.8068C85.5341 122.625 86.1894 122.492 86.7727 122.227C87.3561 121.955 87.8144 121.572 88.1477 121.08C88.4886 120.58 88.6591 119.989 88.6591 119.307C88.6591 118.405 88.3409 117.663 87.7045 117.08C87.0758 116.496 86.1402 116.205 84.8977 116.205H80.6364V122.625ZM104.997 136.341C103.247 136.341 101.736 135.977 100.463 135.25C99.1979 134.515 98.2244 133.477 97.5426 132.136C96.8608 130.788 96.5199 129.201 96.5199 127.375C96.5199 125.58 96.8608 124.004 97.5426 122.648C98.232 121.284 99.1941 120.223 100.429 119.466C101.664 118.701 103.115 118.318 104.781 118.318C105.857 118.318 106.872 118.492 107.827 118.841C108.789 119.182 109.637 119.712 110.372 120.432C111.115 121.152 111.698 122.068 112.122 123.182C112.546 124.288 112.759 125.606 112.759 127.136V128.398H98.4517V125.625H108.815C108.808 124.837 108.637 124.136 108.304 123.523C107.971 122.902 107.505 122.413 106.906 122.057C106.315 121.701 105.626 121.523 104.838 121.523C103.997 121.523 103.259 121.727 102.622 122.136C101.986 122.538 101.49 123.068 101.134 123.727C100.785 124.379 100.607 125.095 100.599 125.875V128.295C100.599 129.311 100.785 130.182 101.156 130.909C101.527 131.629 102.046 132.182 102.713 132.568C103.38 132.947 104.16 133.136 105.054 133.136C105.652 133.136 106.194 133.053 106.679 132.886C107.164 132.712 107.584 132.458 107.94 132.125C108.296 131.792 108.565 131.379 108.747 130.886L112.588 131.318C112.346 132.333 111.884 133.22 111.202 133.977C110.527 134.727 109.664 135.311 108.611 135.727C107.558 136.136 106.353 136.341 104.997 136.341ZM121.261 136.352C120.155 136.352 119.159 136.155 118.273 135.761C117.394 135.36 116.697 134.769 116.182 133.989C115.674 133.208 115.42 132.246 115.42 131.102C115.42 130.117 115.602 129.303 115.966 128.659C116.33 128.015 116.826 127.5 117.455 127.114C118.083 126.727 118.792 126.436 119.58 126.239C120.375 126.034 121.197 125.886 122.045 125.795C123.068 125.689 123.898 125.595 124.534 125.511C125.17 125.42 125.633 125.284 125.92 125.102C126.216 124.913 126.364 124.621 126.364 124.227V124.159C126.364 123.303 126.11 122.64 125.602 122.17C125.095 121.701 124.364 121.466 123.409 121.466C122.402 121.466 121.602 121.686 121.011 122.125C120.428 122.564 120.034 123.083 119.83 123.682L115.989 123.136C116.292 122.076 116.792 121.189 117.489 120.477C118.186 119.758 119.038 119.22 120.045 118.864C121.053 118.5 122.167 118.318 123.386 118.318C124.227 118.318 125.064 118.417 125.898 118.614C126.731 118.811 127.492 119.136 128.182 119.591C128.871 120.038 129.424 120.648 129.841 121.42C130.265 122.193 130.477 123.159 130.477 124.318V136H126.523V133.602H126.386C126.136 134.087 125.784 134.542 125.33 134.966C124.883 135.383 124.318 135.72 123.636 135.977C122.962 136.227 122.17 136.352 121.261 136.352ZM122.33 133.33C123.155 133.33 123.871 133.167 124.477 132.841C125.083 132.508 125.549 132.068 125.875 131.523C126.208 130.977 126.375 130.383 126.375 129.739V127.682C126.246 127.788 126.027 127.886 125.716 127.977C125.413 128.068 125.072 128.148 124.693 128.216C124.314 128.284 123.939 128.345 123.568 128.398C123.197 128.451 122.875 128.496 122.602 128.534C121.989 128.617 121.439 128.754 120.955 128.943C120.47 129.133 120.087 129.398 119.807 129.739C119.527 130.072 119.386 130.504 119.386 131.034C119.386 131.792 119.663 132.364 120.216 132.75C120.769 133.136 121.473 133.33 122.33 133.33ZM143.33 118.545V121.727H133.295V118.545H143.33ZM135.773 114.364H139.886V130.75C139.886 131.303 139.97 131.727 140.136 132.023C140.311 132.311 140.538 132.508 140.818 132.614C141.098 132.72 141.409 132.773 141.75 132.773C142.008 132.773 142.242 132.754 142.455 132.716C142.674 132.678 142.841 132.644 142.955 132.614L143.648 135.83C143.428 135.905 143.114 135.989 142.705 136.08C142.303 136.17 141.811 136.223 141.227 136.239C140.197 136.269 139.269 136.114 138.443 135.773C137.617 135.424 136.962 134.886 136.477 134.159C136 133.432 135.765 132.523 135.773 131.432V114.364Z" fill="black"/>
</g>
</svg>
