<svg width="771" height="1103" viewBox="0 0 771 1103" fill="none" xmlns="http://www.w3.org/2000/svg">
<path d="M401.513 591.774C394.331 369.772 388.973 236.748 401.513 40.7737C404.34 9.53877 416.231 0.760178 463.013 6.77366C541.308 103.384 610.412 136.361 731.013 241.774C755.137 275.379 762.867 292.937 765.013 329.274C741.572 366.006 694.513 414.774 694.513 414.774C694.513 414.774 743.779 460.338 765.013 491.774C763.547 521.575 760.256 540.695 737.013 591.774L632.013 673.274C614.397 682.681 606.521 681.175 594.013 673.274C600.116 636.162 650.518 596.969 656.513 577.274C662.508 557.578 673.901 497.21 627.013 465.274C607.653 440.775 579.808 425.111 509.013 394.774C477.241 389.15 470.522 393.026 463.013 402.774V911.274C459.472 921.806 455.069 931.212 447.013 943.774C420.412 985.252 371.147 1036.38 327.013 1066.32C310.437 1077.56 294.341 1086.17 280.013 1090.77L90.0131 1097.77C28.7003 1071.46 13.8863 1052.47 14.5131 1012.77L5.01306 920.774L14.5131 733.274C34.517 683.767 54.8111 667.481 105.513 656.774C187.931 646.283 246.919 646.526 382.013 648.274C392.712 633.413 397.084 621.279 401.513 591.774Z" fill="white"/>
<path d="M74.5131 768.274L146.013 733.274C148.112 745.466 148.94 752.374 167.013 761.274C195.073 749.379 210.605 745.396 238.013 742.274C240.75 751.522 245.825 755.431 258.013 761.274C283.276 749.484 298.524 746.947 327.013 747.274M69.5131 868.274C99.7615 850.811 117.719 840.983 154.513 823.274C157.756 835.725 160.173 841.938 167.013 849.774C200.593 841.388 216.463 837.67 238.013 833.274C245.035 837.332 249.255 839.763 258.013 844.774C276.559 842.925 287.105 839.93 306.013 833.274M83.5131 977.774C110.438 964.64 127.439 958.145 167.013 950.774L160.513 971.274C183.987 968.002 194.852 962.511 213.013 950.774C222.453 960.179 229.69 962.011 244.013 962.774C262.195 958.874 269.038 954.62 280.013 946.274C281.742 946.4 283.405 946.523 285.013 946.643M331.013 950.774C313.766 948.908 302.786 947.965 285.013 946.643M285.013 946.643C284.212 925.411 286.235 910.182 291.513 880.774L391.013 733.274C415.632 731.26 426.547 735.16 435.013 761.274L341.513 924.774C312.556 940.275 298.116 948.161 285.013 946.643ZM327.013 1066.32C310.437 1077.56 294.341 1086.17 280.013 1090.77L90.0131 1097.77C28.7003 1071.46 13.8863 1052.47 14.5131 1012.77L5.01306 920.774L14.5131 733.274C34.517 683.767 54.8111 667.481 105.513 656.774C187.931 646.283 246.919 646.526 382.013 648.274C392.712 633.413 397.084 621.279 401.513 591.774C394.331 369.772 388.973 236.748 401.513 40.7737C404.34 9.53877 416.231 0.760178 463.013 6.77366C541.308 103.384 610.412 136.361 731.013 241.774C755.137 275.379 762.867 292.937 765.013 329.274C741.572 366.006 694.513 414.774 694.513 414.774C694.513 414.774 743.779 460.338 765.013 491.774C763.547 521.575 760.256 540.695 737.013 591.774L632.013 673.274C614.397 682.681 606.521 681.175 594.013 673.274C600.116 636.162 650.518 596.969 656.513 577.274C662.508 557.578 673.901 497.21 627.013 465.274C607.653 440.775 579.808 425.111 509.013 394.774C477.241 389.15 470.522 393.026 463.013 402.774V911.274C459.472 921.806 455.069 931.212 447.013 943.774M327.013 1066.32L331.013 988.774C343.931 968.105 350.466 962.733 361.013 962.774C391.013 950.774 415.513 965.774 447.013 943.774M327.013 1066.32C371.147 1036.38 420.412 985.252 447.013 943.774" stroke="black" stroke-width="10"/>
<path d="M391.513 733.274L296.013 879.274C284.064 905.842 284.216 920.573 287.513 946.774C311.621 940.91 323.989 935.981 344.013 924.274L435.513 761.774C425.008 731.199 412.981 731.927 391.513 733.274Z" fill="black" stroke="black" stroke-width="10"/>
<path d="M652.281 275.759C652.281 275.759 527.264 196.594 499.281 193.259C471.298 189.923 455.314 203.118 486.781 253.759C556.998 313.616 590.214 353.794 659.781 380.759C678.605 343.77 680.87 315.434 652.281 275.759Z" stroke="black" stroke-width="10"/>
</svg>
