<svg width="1024" height="1024" viewBox="0 0 1024 1024" fill="none" xmlns="http://www.w3.org/2000/svg">
<g id="Tama&#195;&#177;o=App, Tema=Oscuro">
<g id="icon">
<g id="Dise&#195;&#177;o_interno">
<path id="Vector 8" d="M520.996 513.229V61.5229C529.288 29.0244 545.988 26.4555 588.921 38.9376C637.923 133.154 685.445 180.959 812.104 255.756C909.952 340.111 906.463 386.222 880.029 468.058C763.091 595.91 742.649 604.693 753.882 553.882C842.118 340.48 784.891 289.294 564.662 273.825V833.94C531.477 837.46 510.439 841.255 467.626 852.008C426.737 893.539 442.289 914.234 433.663 951.383C325.087 994.368 226.304 994.449 128 951.383V603.57C209.473 528.827 306.684 515.165 520.996 513.229Z" fill="black" stroke="black" stroke-width="22.2609"/>
<path id="Vector 10" d="M178.089 656.964L252.71 614.654C241.016 637.602 244.418 644.997 252.71 656.964L336.11 614.654C329.086 638.006 326.179 650.096 336.11 656.964C436.299 611.649 466.4 604.912 489.741 614.654M182.478 765.088L252.71 727.479C245.859 748.365 245.498 758.802 252.71 774.49L336.11 727.479C335.068 747.196 339.079 754.516 349.278 765.088C412.623 727.386 440.753 726.263 489.741 727.479M178.089 877.913L252.71 830.902C244.443 857.039 244.51 867.338 252.71 877.913L336.11 845.005C338.325 864.425 341.44 871.113 349.278 877.913C399.509 834.468 417.177 820.585 437.067 807.397" stroke="white" stroke-width="22.2609"/>
<g id="Vector 9">
<path d="M412.184 966.956C420.532 950.26 473.402 852.473 467.718 852.473C462.349 852.473 564.456 845.947 570.724 844.687C570.747 844.632 570.77 844.577 570.793 844.521C571.13 844.557 571.093 844.613 570.724 844.687C544.455 907.133 403.844 983.637 412.184 966.956Z" fill="#DDDDDD"/>
<path d="M467.718 852.473C473.402 852.473 420.532 950.26 412.184 966.956C403.837 983.652 544.704 906.998 570.793 844.521C576.848 845.156 462.033 852.473 467.718 852.473Z" stroke="#CCCCCC" stroke-width="5.56522"/>
</g>
</g>
</g>
</g>
</svg>
