<svg width="169" height="48" viewBox="0 0 169 48" fill="none" xmlns="http://www.w3.org/2000/svg">
<g id="Tama&#195;&#177;o=Mediano, Tema=Oscuro">
<g id="icon">
<g id="Dise&#195;&#177;o_interno">
<path id="Vector 8" d="M24.4217 24.0576V2.88388C24.8104 1.36052 25.5932 1.2401 27.6057 1.8252C29.9026 6.2416 32.1302 8.48243 38.0674 11.9886C42.654 15.9427 42.4905 18.1042 41.2514 21.9402C35.7699 27.9333 34.8117 28.345 35.3382 25.9632C39.4743 15.96 36.7917 13.5606 26.4685 12.8355V39.0909C24.913 39.2559 23.9268 39.4338 21.92 39.9379C20.0033 41.8846 20.7323 42.8547 20.328 44.5961C15.2384 46.611 10.608 46.6148 6 44.5961V28.2923C9.81903 24.7888 14.3758 24.1484 24.4217 24.0576Z" fill="black" stroke="black" stroke-width="1.04348"/>
<path id="Vector 10" d="M8.3479 30.7952L11.8458 28.8119C11.2976 29.8876 11.4571 30.2342 11.8458 30.7952L15.7551 28.8119C15.4259 29.9065 15.2896 30.4733 15.7551 30.7952C20.4515 28.6711 21.8625 28.3553 22.9566 28.8119M8.55366 35.8635L11.8458 34.1006C11.5246 35.0796 11.5077 35.5689 11.8458 36.3042L15.7551 34.1006C15.7063 35.0248 15.8943 35.368 16.3724 35.8635C19.3417 34.0962 20.6603 34.0436 22.9566 34.1006M8.3479 41.1522L11.8458 38.9486C11.4583 40.1737 11.4614 40.6565 11.8458 41.1522L15.7551 39.6096C15.859 40.5199 16.005 40.8335 16.3724 41.1522C18.727 39.1157 19.5551 38.4649 20.4875 37.8467" stroke="white" stroke-width="1.04348"/>
<g id="Vector 9">
<path d="M19.3211 45.3261C19.7124 44.5434 22.1907 39.9597 21.9243 39.9597C21.6726 39.9597 26.4589 39.6538 26.7527 39.5947C26.7538 39.5921 26.7549 39.5895 26.7559 39.5869C26.7717 39.5886 26.77 39.5912 26.7527 39.5947C25.5213 42.5219 18.9302 46.108 19.3211 45.3261Z" fill="#DDDDDD"/>
<path d="M21.9243 39.9597C22.1907 39.9597 19.7124 44.5434 19.3211 45.3261C18.9298 46.1087 25.533 42.5155 26.7559 39.5869C27.0397 39.6167 21.6578 39.9597 21.9243 39.9597Z" stroke="#CCCCCC" stroke-width="0.26087"/>
</g>
</g>
</g>
<path id="NoteBeat" d="M76.0653 15.5455V33H73.2528L65.0284 21.1108H64.8835V33H61.7216V15.5455H64.5511L72.767 27.4432H72.9205V15.5455H76.0653ZM85.0845 33.2557C83.8061 33.2557 82.6982 32.9744 81.7607 32.4119C80.8232 31.8494 80.0959 31.0625 79.5788 30.0511C79.0675 29.0398 78.8118 27.858 78.8118 26.5057C78.8118 25.1534 79.0675 23.9687 79.5788 22.9517C80.0959 21.9347 80.8232 21.1449 81.7607 20.5824C82.6982 20.0199 83.8061 19.7386 85.0845 19.7386C86.3629 19.7386 87.4709 20.0199 88.4084 20.5824C89.3459 21.1449 90.0703 21.9347 90.5817 22.9517C91.0987 23.9687 91.3572 25.1534 91.3572 26.5057C91.3572 27.858 91.0987 29.0398 90.5817 30.0511C90.0703 31.0625 89.3459 31.8494 88.4084 32.4119C87.4709 32.9744 86.3629 33.2557 85.0845 33.2557ZM85.1016 30.7841C85.7947 30.7841 86.3743 30.5937 86.8402 30.2131C87.3061 29.8267 87.6527 29.3097 87.88 28.6619C88.1129 28.0142 88.2294 27.2926 88.2294 26.4972C88.2294 25.696 88.1129 24.9716 87.88 24.3239C87.6527 23.6705 87.3061 23.1506 86.8402 22.7642C86.3743 22.3778 85.7947 22.1847 85.1016 22.1847C84.3913 22.1847 83.8004 22.3778 83.3288 22.7642C82.8629 23.1506 82.5135 23.6705 82.2805 24.3239C82.0533 24.9716 81.9396 25.696 81.9396 26.4972C81.9396 27.2926 82.0533 28.0142 82.2805 28.6619C82.5135 29.3097 82.8629 29.8267 83.3288 30.2131C83.8004 30.5937 84.3913 30.7841 85.1016 30.7841ZM100.513 19.9091V22.2955H92.9872V19.9091H100.513ZM94.8452 16.7727H97.9304V29.0625C97.9304 29.4773 97.9929 29.7955 98.1179 30.017C98.2486 30.233 98.419 30.3807 98.6293 30.4602C98.8395 30.5398 99.0724 30.5795 99.3281 30.5795C99.5213 30.5795 99.6974 30.5653 99.8565 30.5369C100.021 30.5085 100.146 30.483 100.232 30.4602L100.751 32.8722C100.587 32.929 100.351 32.9915 100.044 33.0597C99.7429 33.1278 99.3736 33.1676 98.9361 33.179C98.1634 33.2017 97.4673 33.0852 96.848 32.8295C96.2287 32.5682 95.7372 32.1648 95.3736 31.6193C95.0156 31.0739 94.8395 30.392 94.8452 29.5739V16.7727ZM108.748 33.2557C107.435 33.2557 106.302 32.983 105.347 32.4375C104.398 31.8864 103.668 31.108 103.157 30.1023C102.646 29.0909 102.39 27.9006 102.39 26.5312C102.39 25.1847 102.646 24.0028 103.157 22.9858C103.674 21.9631 104.396 21.1676 105.322 20.5994C106.248 20.0256 107.336 19.7386 108.586 19.7386C109.393 19.7386 110.154 19.8693 110.87 20.1307C111.592 20.3864 112.228 20.7841 112.779 21.3239C113.336 21.8636 113.773 22.5511 114.092 23.3864C114.41 24.2159 114.569 25.2045 114.569 26.3523V27.2983H103.839V25.2188H111.612C111.606 24.6278 111.478 24.1023 111.228 23.642C110.978 23.1761 110.629 22.8097 110.18 22.5426C109.737 22.2756 109.219 22.142 108.629 22.142C107.998 22.142 107.444 22.2955 106.967 22.6023C106.489 22.9034 106.117 23.3011 105.85 23.7955C105.589 24.2841 105.455 24.821 105.45 25.4062V27.2216C105.45 27.983 105.589 28.6364 105.867 29.1818C106.146 29.7216 106.535 30.1364 107.035 30.4261C107.535 30.7102 108.12 30.8523 108.79 30.8523C109.239 30.8523 109.646 30.7898 110.009 30.6648C110.373 30.5341 110.688 30.3438 110.955 30.0938C111.222 29.8438 111.424 29.5341 111.56 29.1648L114.441 29.4886C114.259 30.25 113.913 30.9148 113.401 31.483C112.896 32.0455 112.248 32.483 111.458 32.7955C110.668 33.1023 109.765 33.2557 108.748 33.2557ZM117.315 33V15.5455H123.997C125.259 15.5455 126.307 15.7443 127.142 16.142C127.983 16.5341 128.611 17.071 129.026 17.7528C129.446 18.4347 129.656 19.2074 129.656 20.071C129.656 20.7812 129.52 21.3892 129.247 21.8949C128.974 22.3949 128.608 22.8011 128.148 23.1136C127.688 23.4261 127.173 23.6506 126.605 23.7869V23.9574C127.224 23.9915 127.818 24.1818 128.386 24.5284C128.96 24.8693 129.429 25.3523 129.793 25.9773C130.156 26.6023 130.338 27.358 130.338 28.2443C130.338 29.1477 130.119 29.9602 129.682 30.6818C129.244 31.3977 128.585 31.9631 127.705 32.3778C126.824 32.7926 125.716 33 124.381 33H117.315ZM120.477 30.358H123.878C125.026 30.358 125.852 30.1392 126.358 29.7017C126.869 29.2585 127.125 28.6903 127.125 27.9972C127.125 27.4801 126.997 27.0142 126.741 26.5994C126.486 26.179 126.122 25.8494 125.651 25.6108C125.179 25.3665 124.616 25.2443 123.963 25.2443H120.477V30.358ZM120.477 22.9688H123.605C124.151 22.9688 124.642 22.8693 125.08 22.6705C125.517 22.4659 125.861 22.179 126.111 21.8097C126.366 21.4347 126.494 20.9915 126.494 20.4801C126.494 19.804 126.256 19.2472 125.778 18.8097C125.307 18.3722 124.605 18.1534 123.673 18.1534H120.477V22.9688ZM138.748 33.2557C137.435 33.2557 136.302 32.983 135.347 32.4375C134.398 31.8864 133.668 31.108 133.157 30.1023C132.646 29.0909 132.39 27.9006 132.39 26.5312C132.39 25.1847 132.646 24.0028 133.157 22.9858C133.674 21.9631 134.396 21.1676 135.322 20.5994C136.248 20.0256 137.336 19.7386 138.586 19.7386C139.393 19.7386 140.154 19.8693 140.87 20.1307C141.592 20.3864 142.228 20.7841 142.779 21.3239C143.336 21.8636 143.773 22.5511 144.092 23.3864C144.41 24.2159 144.569 25.2045 144.569 26.3523V27.2983H133.839V25.2188H141.612C141.606 24.6278 141.478 24.1023 141.228 23.642C140.978 23.1761 140.629 22.8097 140.18 22.5426C139.737 22.2756 139.219 22.142 138.629 22.142C137.998 22.142 137.444 22.2955 136.967 22.6023C136.489 22.9034 136.117 23.3011 135.85 23.7955C135.589 24.2841 135.455 24.821 135.45 25.4062V27.2216C135.45 27.983 135.589 28.6364 135.867 29.1818C136.146 29.7216 136.535 30.1364 137.035 30.4261C137.535 30.7102 138.12 30.8523 138.79 30.8523C139.239 30.8523 139.646 30.7898 140.009 30.6648C140.373 30.5341 140.688 30.3438 140.955 30.0938C141.222 29.8438 141.424 29.5341 141.56 29.1648L144.441 29.4886C144.259 30.25 143.913 30.9148 143.401 31.483C142.896 32.0455 142.248 32.483 141.458 32.7955C140.668 33.1023 139.765 33.2557 138.748 33.2557ZM150.946 33.2642C150.116 33.2642 149.369 33.1165 148.705 32.821C148.045 32.5199 147.523 32.0767 147.136 31.4915C146.756 30.9062 146.565 30.1847 146.565 29.3267C146.565 28.5881 146.702 27.9773 146.974 27.4943C147.247 27.0114 147.619 26.625 148.091 26.3352C148.563 26.0455 149.094 25.8267 149.685 25.679C150.281 25.5256 150.898 25.4148 151.534 25.3466C152.301 25.267 152.923 25.196 153.401 25.1335C153.878 25.0653 154.224 24.9631 154.44 24.8267C154.662 24.6847 154.773 24.4659 154.773 24.1705V24.1193C154.773 23.4773 154.582 22.9801 154.202 22.6278C153.821 22.2756 153.273 22.0994 152.557 22.0994C151.801 22.0994 151.202 22.2642 150.759 22.5938C150.321 22.9233 150.026 23.3125 149.872 23.7614L146.991 23.3523C147.219 22.5568 147.594 21.892 148.116 21.358C148.639 20.8182 149.278 20.4148 150.034 20.1477C150.79 19.875 151.625 19.7386 152.54 19.7386C153.17 19.7386 153.798 19.8125 154.423 19.9602C155.048 20.108 155.619 20.3523 156.136 20.6932C156.653 21.0284 157.068 21.4858 157.381 22.0653C157.699 22.6449 157.858 23.3693 157.858 24.2386V33H154.892V31.2017H154.79C154.602 31.5653 154.338 31.9062 153.997 32.2244C153.662 32.5369 153.239 32.7898 152.727 32.983C152.222 33.1705 151.628 33.2642 150.946 33.2642ZM151.747 30.9972C152.366 30.9972 152.903 30.875 153.358 30.6307C153.813 30.3807 154.162 30.0511 154.406 29.642C154.656 29.233 154.781 28.7869 154.781 28.304V26.7614C154.685 26.8409 154.52 26.9148 154.287 26.983C154.06 27.0511 153.804 27.1108 153.52 27.1619C153.236 27.2131 152.955 27.2585 152.676 27.2983C152.398 27.3381 152.156 27.3722 151.952 27.4006C151.491 27.4631 151.08 27.5653 150.716 27.7074C150.352 27.8494 150.065 28.0483 149.855 28.304C149.645 28.554 149.54 28.8778 149.54 29.2756C149.54 29.8438 149.747 30.2727 150.162 30.5625C150.577 30.8523 151.105 30.9972 151.747 30.9972ZM167.497 19.9091V22.2955H159.972V19.9091H167.497ZM161.83 16.7727H164.915V29.0625C164.915 29.4773 164.977 29.7955 165.102 30.017C165.233 30.233 165.403 30.3807 165.614 30.4602C165.824 30.5398 166.057 30.5795 166.312 30.5795C166.506 30.5795 166.682 30.5653 166.841 30.5369C167.006 30.5085 167.131 30.483 167.216 30.4602L167.736 32.8722C167.571 32.929 167.335 32.9915 167.028 33.0597C166.727 33.1278 166.358 33.1676 165.92 33.179C165.148 33.2017 164.452 33.0852 163.832 32.8295C163.213 32.5682 162.722 32.1648 162.358 31.6193C162 31.0739 161.824 30.392 161.83 29.5739V16.7727Z" fill="black"/>
</g>
</svg>
