<svg width="500" height="500" viewBox="0 0 500 500" fill="none" xmlns="http://www.w3.org/2000/svg">
<g id="Tama&#195;&#177;o=Avatar, Tema=Claro">
<g id="icon">
<g id="Dise&#195;&#177;o_interno">
<path id="Vector 8" d="M254.393 250.6V30.0405C258.442 14.1721 266.596 12.9177 287.559 19.0125C311.486 65.0167 334.69 88.3587 396.535 124.881C444.312 166.07 442.609 188.585 429.702 228.544C372.603 290.972 362.621 295.26 368.107 270.45C411.19 166.25 383.247 141.257 275.714 133.703V407.197C259.51 408.916 249.238 410.769 228.333 416.019C208.368 436.298 215.962 446.404 211.75 464.543C158.734 485.531 110.5 485.571 62.5 464.543V294.712C102.282 258.216 149.748 251.545 254.393 250.6Z" fill="white" stroke="white" stroke-width="10.8696"/>
<path id="Vector 10" d="M86.9579 320.784L123.394 300.125C117.684 311.329 119.345 314.94 123.394 320.784L164.116 300.125C160.687 311.527 159.267 317.43 164.116 320.784C213.037 298.657 227.735 295.368 239.132 300.125M89.1012 373.578L123.394 355.215C120.049 365.413 119.873 370.509 123.394 378.169L164.116 355.215C163.608 364.842 165.566 368.417 170.546 373.578C201.477 355.17 215.212 354.621 239.132 355.215M86.9579 428.669L123.394 405.714C119.357 418.476 119.39 423.506 123.394 428.669L164.116 412.601C165.198 422.083 166.719 425.349 170.546 428.669C195.073 407.455 203.7 400.677 213.412 394.237" stroke="black" stroke-width="10.8696"/>
<path id="Vector 9" d="M201.262 472.147C205.338 463.994 231.153 416.246 228.378 416.246C225.756 416.246 275.613 413.06 278.674 412.445C278.685 412.418 278.696 412.391 278.708 412.364C278.872 412.381 278.854 412.409 278.674 412.445C265.847 442.936 197.189 480.292 201.262 472.147Z" fill="#DDDDDD" stroke="#CCCCCC" stroke-width="2.71739"/>
</g>
</g>
</g>
</svg>
