<svg width="135" height="32" viewBox="0 0 135 32" fill="none" xmlns="http://www.w3.org/2000/svg">
<g id="Tama&#195;&#177;o=Peque&#195;&#177;o, Tema=Claro">
<g id="icon">
<g id="Dise&#195;&#177;o_interno">
<path id="Vector 8" d="M16.2811 16.0384V1.92259C16.5403 0.907012 17.0621 0.826736 18.4038 1.2168C19.9351 4.16107 21.4202 5.65495 25.3782 7.99238C28.436 10.6285 28.327 12.0694 27.5009 14.6268C23.8466 18.6222 23.2078 18.8967 23.5588 17.3088C26.3162 10.64 24.5278 9.04043 17.6457 8.55702V26.0606C16.6087 26.1706 15.9512 26.2892 14.6133 26.6252C13.3355 27.9231 13.8215 28.5698 13.552 29.7307C10.159 31.074 7.072 31.0765 4 29.7307V18.8616C6.54602 16.5258 9.58388 16.0989 16.2811 16.0384Z" fill="white" stroke="white" stroke-width="0.695652"/>
<path id="Vector 10" d="M5.56531 20.5301L7.89721 19.2079C7.53178 19.9251 7.63808 20.1561 7.89721 20.5301L10.5035 19.2079C10.284 19.9377 10.1931 20.3155 10.5035 20.5301C13.6344 19.114 14.575 18.9035 15.3044 19.2079M5.70248 23.909L7.89721 22.7337C7.68313 23.3864 7.67184 23.7126 7.89721 24.2028L10.5035 22.7337C10.4709 23.3499 10.5962 23.5786 10.915 23.909C12.8945 22.7308 13.7736 22.6957 15.3044 22.7337M5.56531 27.4348L7.89721 25.9657C7.63888 26.7825 7.64096 27.1043 7.89721 27.4348L10.5035 26.4064C10.5727 27.0133 10.67 27.2223 10.915 27.4348C12.4847 26.0771 13.0368 25.6433 13.6584 25.2312" stroke="black" stroke-width="0.695652"/>
<path id="Vector 9" d="M12.8808 30.2174C13.1416 29.6956 14.7938 26.6398 14.6162 26.6398C14.4484 26.6398 17.6392 26.4359 17.8351 26.3965C17.8358 26.3947 17.8366 26.393 17.8373 26.3913C17.8478 26.3924 17.8467 26.3941 17.8351 26.3965C17.0142 28.3479 12.6201 30.7387 12.8808 30.2174Z" fill="#DDDDDD" stroke="#CCCCCC" stroke-width="0.173913"/>
</g>
</g>
<path id="NoteBeat" d="M57.3878 8.45455V23H55.044L48.1903 13.0923H48.0696V23H45.4347V8.45455H47.7926L54.6392 18.3693H54.767V8.45455H57.3878ZM64.9038 23.2131C63.8384 23.2131 62.9151 22.9787 62.1339 22.5099C61.3526 22.0412 60.7466 21.3854 60.3157 20.5426C59.8896 19.6998 59.6765 18.715 59.6765 17.5881C59.6765 16.4612 59.8896 15.474 60.3157 14.6264C60.7466 13.7789 61.3526 13.1207 62.1339 12.652C62.9151 12.1832 63.8384 11.9489 64.9038 11.9489C65.9691 11.9489 66.8924 12.1832 67.6737 12.652C68.4549 13.1207 69.0586 13.7789 69.4847 14.6264C69.9156 15.474 70.131 16.4612 70.131 17.5881C70.131 18.715 69.9156 19.6998 69.4847 20.5426C69.0586 21.3854 68.4549 22.0412 67.6737 22.5099C66.8924 22.9787 65.9691 23.2131 64.9038 23.2131ZM64.918 21.1534C65.4956 21.1534 65.9786 20.9948 66.3668 20.6776C66.7551 20.3556 67.0439 19.9247 67.2333 19.3849C67.4274 18.8452 67.5245 18.2438 67.5245 17.581C67.5245 16.9134 67.4274 16.3097 67.2333 15.7699C67.0439 15.2254 66.7551 14.7921 66.3668 14.4702C65.9786 14.1482 65.4956 13.9872 64.918 13.9872C64.3261 13.9872 63.8337 14.1482 63.4407 14.4702C63.0524 14.7921 62.7612 15.2254 62.5671 15.7699C62.3777 16.3097 62.283 16.9134 62.283 17.581C62.283 18.2438 62.3777 18.8452 62.5671 19.3849C62.7612 19.9247 63.0524 20.3556 63.4407 20.6776C63.8337 20.9948 64.3261 21.1534 64.918 21.1534ZM77.7607 12.0909V14.0795H71.4893V12.0909H77.7607ZM73.0376 9.47727H75.6087V19.7188C75.6087 20.0644 75.6607 20.3295 75.7649 20.5142C75.8738 20.6941 76.0159 20.8172 76.1911 20.8835C76.3662 20.9498 76.5604 20.983 76.7734 20.983C76.9344 20.983 77.0812 20.9711 77.2138 20.9474C77.3511 20.9238 77.4553 20.9025 77.5263 20.8835L77.9595 22.8935C77.8222 22.9408 77.6257 22.9929 77.37 23.0497C77.1191 23.1065 76.8113 23.1397 76.4467 23.1491C75.8028 23.1681 75.2228 23.071 74.7067 22.858C74.1906 22.6402 73.781 22.304 73.478 21.8494C73.1797 21.3949 73.0329 20.8267 73.0376 20.1449V9.47727ZM84.6232 23.2131C83.5295 23.2131 82.5849 22.9858 81.7894 22.5312C80.9987 22.072 80.3903 21.4233 79.9641 20.5852C79.538 19.7424 79.3249 18.7505 79.3249 17.6094C79.3249 16.4872 79.538 15.5024 79.9641 14.6548C80.395 13.8026 80.9963 13.1397 81.7681 12.6662C82.5399 12.188 83.4466 11.9489 84.4883 11.9489C85.1606 11.9489 85.7951 12.0578 86.3917 12.2756C86.993 12.4886 87.5233 12.8201 87.9826 13.2699C88.4466 13.7197 88.8112 14.2926 89.0763 14.9886C89.3415 15.6799 89.4741 16.5038 89.4741 17.4602V18.2486H80.5323V16.5156H87.0096C87.0049 16.0232 86.8983 15.5852 86.69 15.2017C86.4817 14.8134 86.1905 14.508 85.8164 14.2855C85.4471 14.063 85.0162 13.9517 84.5238 13.9517C83.9982 13.9517 83.5366 14.0795 83.1388 14.3352C82.7411 14.5862 82.431 14.9176 82.2085 15.3295C81.9906 15.7367 81.8794 16.1842 81.8746 16.6719V18.1847C81.8746 18.8191 81.9906 19.3636 82.2227 19.8182C82.4547 20.268 82.779 20.6136 83.1957 20.8551C83.6123 21.0919 84.1 21.2102 84.6587 21.2102C85.0328 21.2102 85.3713 21.1581 85.6744 21.054C85.9774 20.9451 86.2402 20.7865 86.4627 20.5781C86.6853 20.3698 86.8533 20.1117 86.967 19.804L89.3675 20.0739C89.216 20.7083 88.9272 21.2623 88.5011 21.7358C88.0797 22.2045 87.5399 22.5691 86.8817 22.8295C86.2236 23.0852 85.4708 23.2131 84.6232 23.2131ZM91.7628 23V8.45455H97.331C98.3821 8.45455 99.2557 8.62026 99.9517 8.9517C100.652 9.27841 101.176 9.72585 101.521 10.294C101.872 10.8622 102.047 11.5062 102.047 12.2259C102.047 12.8177 101.933 13.3243 101.706 13.7457C101.479 14.1624 101.173 14.5009 100.79 14.7614C100.406 15.0218 99.9777 15.2088 99.5043 15.3224V15.4645C100.02 15.4929 100.515 15.6515 100.989 15.9403C101.467 16.2244 101.857 16.6269 102.161 17.1477C102.464 17.6686 102.615 18.2983 102.615 19.0369C102.615 19.7898 102.433 20.4669 102.068 21.0682C101.704 21.6648 101.154 22.1359 100.42 22.4815C99.6866 22.8272 98.7633 23 97.6506 23H91.7628ZM94.3977 20.7983H97.2315C98.188 20.7983 98.8769 20.616 99.2983 20.2514C99.7244 19.8821 99.9375 19.4086 99.9375 18.831C99.9375 18.4001 99.831 18.0118 99.6179 17.6662C99.4048 17.3158 99.1018 17.0412 98.7088 16.8423C98.3158 16.6387 97.8471 16.5369 97.3026 16.5369H94.3977V20.7983ZM94.3977 14.6406H97.0043C97.4588 14.6406 97.8684 14.5578 98.233 14.392C98.5975 14.2216 98.884 13.9825 99.0923 13.6747C99.3054 13.3622 99.4119 12.9929 99.4119 12.5668C99.4119 12.0033 99.2131 11.5393 98.8153 11.1747C98.4223 10.8101 97.8376 10.6278 97.0611 10.6278H94.3977V14.6406ZM109.623 23.2131C108.529 23.2131 107.585 22.9858 106.789 22.5312C105.999 22.072 105.39 21.4233 104.964 20.5852C104.538 19.7424 104.325 18.7505 104.325 17.6094C104.325 16.4872 104.538 15.5024 104.964 14.6548C105.395 13.8026 105.996 13.1397 106.768 12.6662C107.54 12.188 108.447 11.9489 109.488 11.9489C110.161 11.9489 110.795 12.0578 111.392 12.2756C111.993 12.4886 112.523 12.8201 112.983 13.2699C113.447 13.7197 113.811 14.2926 114.076 14.9886C114.342 15.6799 114.474 16.5038 114.474 17.4602V18.2486H105.532V16.5156H112.01C112.005 16.0232 111.898 15.5852 111.69 15.2017C111.482 14.8134 111.19 14.508 110.816 14.2855C110.447 14.063 110.016 13.9517 109.524 13.9517C108.998 13.9517 108.537 14.0795 108.139 14.3352C107.741 14.5862 107.431 14.9176 107.208 15.3295C106.991 15.7367 106.879 16.1842 106.875 16.6719V18.1847C106.875 18.8191 106.991 19.3636 107.223 19.8182C107.455 20.268 107.779 20.6136 108.196 20.8551C108.612 21.0919 109.1 21.2102 109.659 21.2102C110.033 21.2102 110.371 21.1581 110.674 21.054C110.977 20.9451 111.24 20.7865 111.463 20.5781C111.685 20.3698 111.853 20.1117 111.967 19.804L114.368 20.0739C114.216 20.7083 113.927 21.2623 113.501 21.7358C113.08 22.2045 112.54 22.5691 111.882 22.8295C111.224 23.0852 110.471 23.2131 109.623 23.2131ZM119.788 23.2202C119.097 23.2202 118.474 23.0971 117.92 22.8509C117.371 22.5999 116.936 22.2306 116.614 21.7429C116.296 21.2552 116.138 20.6539 116.138 19.9389C116.138 19.3234 116.251 18.8144 116.479 18.4119C116.706 18.0095 117.016 17.6875 117.409 17.446C117.802 17.2045 118.245 17.0223 118.737 16.8991C119.234 16.7713 119.748 16.679 120.278 16.6222C120.918 16.5559 121.436 16.4967 121.834 16.4446C122.232 16.3878 122.52 16.3026 122.7 16.1889C122.885 16.0705 122.977 15.8883 122.977 15.642V15.5994C122.977 15.0644 122.819 14.6501 122.501 14.3565C122.184 14.063 121.727 13.9162 121.131 13.9162C120.501 13.9162 120.001 14.0535 119.632 14.3281C119.268 14.6027 119.021 14.9271 118.893 15.3011L116.493 14.9602C116.682 14.2973 116.995 13.7434 117.43 13.2983C117.866 12.8485 118.399 12.5123 119.028 12.2898C119.658 12.0625 120.354 11.9489 121.116 11.9489C121.642 11.9489 122.165 12.0104 122.686 12.1335C123.207 12.2566 123.683 12.4602 124.114 12.7443C124.545 13.0237 124.89 13.4048 125.151 13.8878C125.416 14.3707 125.548 14.9744 125.548 15.6989V23H123.077V21.5014H122.991C122.835 21.8045 122.615 22.0885 122.331 22.3537C122.052 22.6141 121.699 22.8248 121.273 22.9858C120.851 23.142 120.357 23.2202 119.788 23.2202ZM120.456 21.331C120.972 21.331 121.42 21.2292 121.798 21.0256C122.177 20.8172 122.468 20.5426 122.672 20.2017C122.88 19.8608 122.984 19.4891 122.984 19.0866V17.8011C122.904 17.8674 122.767 17.929 122.572 17.9858C122.383 18.0426 122.17 18.0923 121.933 18.1349C121.696 18.1776 121.462 18.2154 121.23 18.2486C120.998 18.2817 120.797 18.3101 120.626 18.3338C120.243 18.3859 119.9 18.4711 119.597 18.5895C119.294 18.7079 119.054 18.8736 118.879 19.0866C118.704 19.295 118.616 19.5649 118.616 19.8963C118.616 20.3698 118.789 20.7273 119.135 20.9688C119.481 21.2102 119.921 21.331 120.456 21.331ZM133.581 12.0909V14.0795H127.31V12.0909H133.581ZM128.858 9.47727H131.429V19.7188C131.429 20.0644 131.481 20.3295 131.585 20.5142C131.694 20.6941 131.836 20.8172 132.011 20.8835C132.187 20.9498 132.381 20.983 132.594 20.983C132.755 20.983 132.902 20.9711 133.034 20.9474C133.171 20.9238 133.276 20.9025 133.347 20.8835L133.78 22.8935C133.643 22.9408 133.446 22.9929 133.19 23.0497C132.939 23.1065 132.632 23.1397 132.267 23.1491C131.623 23.1681 131.043 23.071 130.527 22.858C130.011 22.6402 129.601 22.304 129.298 21.8494C129 21.3949 128.853 20.8267 128.858 20.1449V9.47727Z" fill="white"/>
</g>
</svg>
